<svg width="81" height="81" viewBox="0 0 81 81" fill="none" xmlns="http://www.w3.org/2000/svg">
<path d="M40.605 1.62305C41.365 1.87638 42.1783 2.14305 42.9916 2.43638C53.8716 6.31638 64.7383 10.2097 75.6316 14.0497C76.805 14.463 77.0583 14.9564 76.8983 16.1964C76.2183 21.303 75.6983 26.4364 75.1116 31.5564C74.525 36.6364 73.8983 41.7031 73.3116 46.7831C72.725 51.7697 72.1916 56.7564 71.5783 61.7297C71.5116 62.2497 71.1516 62.9431 70.725 63.1831C60.9516 68.6631 51.1516 74.0897 41.3383 79.4897C40.9383 79.7031 40.205 79.6497 39.7783 79.4231C30.085 74.1297 20.445 68.7697 10.7783 63.4497C9.96497 62.9964 9.60497 62.4897 9.4983 61.4897C8.79163 54.8364 7.95163 48.1964 7.1783 41.5564C6.59163 36.5297 6.0583 31.4897 5.47163 26.463C5.07163 22.9564 4.67163 19.463 4.20497 15.9697C4.07163 15.023 4.20497 14.543 5.2183 14.183C16.6983 10.1164 28.165 6.00971 39.6316 1.90305C39.9383 1.79638 40.245 1.72971 40.605 1.62305ZM17.8316 61.3564C20.4583 61.3564 22.845 61.3164 25.2316 61.3831C26.125 61.4097 26.4716 61.0631 26.765 60.2631C27.965 57.1431 29.2583 54.063 30.4716 50.9564C30.7516 50.2364 31.0583 49.8897 31.8983 49.8897C37.645 49.9297 43.405 49.9431 49.1516 49.9031C50.0316 49.9031 50.3783 50.1964 50.685 50.9964C51.885 54.1564 53.1783 57.303 54.4716 60.4364C54.6183 60.7964 54.9916 61.3164 55.2716 61.3164C57.8716 61.383 60.485 61.3564 63.325 61.3564C55.7116 44.2764 48.1916 27.3964 40.565 10.2764C32.9383 27.4097 25.4183 44.3031 17.8316 61.3564Z" fill="#272C34"/>
<path d="M33.9382 42.8098C36.1382 37.5031 38.2982 32.3164 40.5649 26.8364C42.8316 32.2898 44.9916 37.4898 47.2049 42.8098C42.7249 42.8098 38.4182 42.8098 33.9382 42.8098Z" fill="#272C34"/>
</svg>
