<svg width="275" height="249" viewBox="0 0 275 249" fill="none" xmlns="http://www.w3.org/2000/svg">
<g clip-path="url(#clip0_2_1111)">
<path d="M193.313 29.9415C184.672 25.8785 175.31 23.5702 165.771 23.1503C156.231 22.7303 146.703 24.2071 137.738 27.495L68.4395 52.7176C30.7515 66.4349 11.2754 108.202 24.9926 145.89C38.7099 183.578 80.4767 203.054 118.165 189.336L169.138 170.784L210.679 190.155C211.322 190.455 211.997 190.476 212.656 190.236C213.316 189.996 213.866 189.529 214.166 188.886C214.465 188.244 214.478 187.546 214.238 186.886L203.058 156.17L203.696 155.725C216.984 146.607 226.865 133.332 231.787 117.987C236.709 102.642 236.392 86.096 230.887 70.9504C227.648 61.9649 222.659 53.7113 216.208 46.6679C209.757 39.6244 201.972 33.9312 193.305 29.9179L193.313 29.9415ZM223.644 124.27C218.202 136.067 209.48 145.964 198.463 152.854C197.371 153.519 196.948 154.846 197.409 156.039L207.096 182.656L170.344 165.597C169.701 165.297 168.962 165.246 168.294 165.462L116.356 184.366C99.4432 190.522 81.1195 189.722 64.7983 182.111C56.7616 178.395 49.5422 173.12 43.5585 166.594C37.5748 160.067 32.9456 152.418 29.9392 144.089C23.7664 127.13 24.5834 108.853 32.1941 92.5319C39.8048 76.2108 53.2417 63.5843 70.1541 57.4286L139.453 32.206C156.374 26.0739 174.665 26.8588 191.066 34.7607C199.099 38.4861 206.314 43.7687 212.291 50.3025C218.268 56.8362 222.889 64.4911 225.887 72.8236C228.921 81.1621 230.239 89.9122 229.863 98.7721C229.486 107.632 227.405 116.205 223.629 124.302L223.644 124.27Z" fill="#F67C13"/>
<g opacity="0.5">
<path d="M34.3538 96.1204C38.5937 94.5772 40.0254 98.5109 44.3124 96.9505C48.5994 95.3902 47.1677 91.4565 51.4311 89.9047C55.6946 88.353 57.1499 92.2781 61.4604 90.7092C65.771 89.1402 64.3393 85.2066 68.6498 83.6377C72.9604 82.0687 74.3686 86.011 78.6791 84.4421C82.9897 82.8732 81.5344 78.9481 85.8214 77.3877C90.1084 75.8274 91.5637 79.7525 95.8507 78.1921C100.138 76.6318 98.7295 72.6895 103.04 71.1206C107.351 69.5517 108.759 73.494 113.046 71.9336C117.333 70.3733 115.854 66.4568 120.165 64.8879C124.475 63.3189 125.883 67.2612 130.147 65.7094C134.41 64.1577 133.026 60.2068 137.336 58.6379C141.647 57.069 143.102 60.9941 147.413 59.4252C151.723 57.8563 150.315 53.914 154.625 52.3451C158.936 50.7762 160.344 54.7185 164.631 53.1581C168.918 51.5978 167.581 47.6298 171.915 46.0523C176.249 44.4748 177.728 48.3914 182.109 46.7967C186.49 45.2021 185.058 41.2684 189.44 39.6738" stroke="#231F20" stroke-width="2.08053" stroke-miterlimit="10"/>
<path d="M43.6815 121.748C47.9214 120.205 49.3532 124.139 53.6402 122.578C57.9272 121.018 56.4954 117.084 60.7589 115.533C65.0223 113.981 66.4776 117.906 70.7882 116.337C75.0988 114.768 73.667 110.834 77.9776 109.265C82.2881 107.697 83.6963 111.639 88.0069 110.07C92.3174 108.501 90.8621 104.576 95.1491 103.016C99.4361 101.455 100.891 105.38 105.178 103.82C109.465 102.26 108.057 98.3173 112.368 96.7484C116.678 95.1795 118.087 99.1218 122.374 97.5614C126.661 96.0011 125.182 92.0846 129.492 90.5156C133.803 88.9467 135.211 92.889 139.474 91.3372C143.738 89.7855 142.353 85.8346 146.664 84.2657C150.974 82.6968 152.43 86.6219 156.74 85.053C161.051 83.4841 159.619 79.5504 163.93 77.9815C168.24 76.4126 169.648 80.3548 173.935 78.7945C178.222 77.2341 176.885 73.2662 181.219 71.6887C185.553 70.1112 187.032 74.0277 191.413 72.4331C195.794 70.8385 194.363 66.9048 198.744 65.3101" stroke="#231F20" stroke-width="2.08053" stroke-miterlimit="10"/>
<path d="M53.0264 147.423C57.2663 145.88 58.6981 149.814 62.9851 148.253C67.2721 146.693 65.8403 142.759 70.1038 141.207C74.3672 139.656 75.8225 143.581 80.1331 142.012C84.4436 140.443 83.0119 136.509 87.3225 134.94C91.633 133.371 93.0412 137.314 97.3518 135.745C101.662 134.176 100.207 130.251 104.494 128.69C108.781 127.13 110.236 131.055 114.523 129.495C118.81 127.935 117.402 123.992 121.713 122.423C126.023 120.854 127.431 124.797 131.718 123.236C136.005 121.676 134.527 117.759 138.837 116.191C143.148 114.622 144.556 118.564 148.819 117.012C153.083 115.46 151.698 111.51 156.009 109.941C160.319 108.372 161.775 112.297 166.085 110.728C170.396 109.159 168.988 105.217 173.298 103.648C177.609 102.079 179.017 106.021 183.304 104.461C187.591 102.9 186.253 98.9325 190.587 97.355C194.922 95.7775 196.4 99.6941 200.782 98.0994C205.163 96.5048 203.731 92.5711 208.112 90.9765" stroke="#231F20" stroke-width="2.08053" stroke-miterlimit="10"/>
<path d="M62.3456 173.027C66.5855 171.484 68.0172 175.418 72.3043 173.857C76.5913 172.297 75.1595 168.363 79.423 166.812C83.6864 165.26 85.1417 169.185 89.4523 167.616C93.7628 166.047 92.3311 162.114 96.6416 160.545C100.952 158.976 102.36 162.918 106.671 161.349C110.982 159.78 109.526 155.855 113.813 154.295C118.1 152.734 119.556 156.659 123.843 155.099C128.13 153.539 126.721 149.597 131.032 148.028C135.342 146.459 136.751 150.401 141.038 148.841C145.325 147.28 143.846 143.364 148.156 141.795C152.467 140.226 153.875 144.168 158.139 142.616C162.402 141.065 161.017 137.114 165.328 135.545C169.638 133.976 171.094 137.901 175.404 136.332C179.715 134.763 178.307 130.821 182.617 129.252C186.928 127.683 188.336 131.625 192.623 130.065C196.91 128.505 195.572 124.537 199.907 122.959C204.241 121.382 205.72 125.298 210.101 123.704C214.482 122.109 213.05 118.175 217.431 116.581" stroke="#231F20" stroke-width="2.08053" stroke-miterlimit="10"/>
</g>
</g>
<defs>
<clipPath id="clip0_2_1111">
<rect width="225.6" height="181.733" fill="white" transform="translate(0.130005 77.58) rotate(-20)"/>
</clipPath>
</defs>
</svg>
