<svg width="81" height="81" viewBox="0 0 81 81" fill="none" xmlns="http://www.w3.org/2000/svg">
<g clip-path="url(#clip0_1_361)">
<path d="M7.47833 4.35645C29.425 4.35645 51.3717 4.35645 73.3317 4.35645C73.4783 4.76978 73.7717 5.19645 73.745 5.60978C73.5717 8.04978 73.3317 10.4764 73.1183 12.9164C72.6383 18.2364 72.1717 23.5431 71.6917 28.8631C71.2783 33.5431 70.865 38.2098 70.4517 42.8898C69.985 48.2098 69.505 53.5164 69.025 58.8364C68.6517 63.0231 68.265 67.1964 67.9183 71.3831C67.8383 72.3698 67.3717 72.8631 66.4383 73.1298C58.145 75.4364 49.865 77.7831 41.5583 80.0631C40.8117 80.2631 39.905 80.3031 39.1583 80.0898C30.8117 77.7831 22.4917 75.4098 14.1583 73.0498C13.3983 72.8364 12.9983 72.3964 12.9183 71.5964C12.6517 68.4498 12.3583 65.3031 12.0783 62.1431C11.665 57.4631 11.2517 52.7964 10.8383 48.1164C10.3583 42.7831 9.89166 37.4364 9.41166 32.1031C8.985 27.3564 8.55833 22.6098 8.13166 17.8631C7.77166 13.7964 7.41166 9.74311 7.03833 5.67645C6.99833 5.16978 7.03833 4.70311 7.47833 4.35645ZM40.425 18.3164C33.9717 18.3164 27.5183 18.3164 21.0783 18.3164C19.5317 18.3164 19.385 18.4898 19.5317 20.0498C19.5317 20.1031 19.545 20.1431 19.545 20.1964C19.825 23.3698 20.105 26.5431 20.385 29.7164C20.7583 33.9031 21.1183 38.0898 21.505 42.2631C21.625 43.5831 21.8117 43.7031 23.1317 43.7031C28.8383 43.7031 34.545 43.7031 40.265 43.7031C43.3317 43.7031 46.3983 43.7031 49.465 43.7031C50.465 43.7031 50.7183 43.9831 50.625 44.9431C50.3583 47.7164 50.0783 50.5031 49.7983 53.2764C49.6917 54.3031 49.425 54.6098 48.4517 54.8764C46.145 55.5031 43.8383 56.1298 41.5183 56.7164C40.9583 56.8631 40.3183 56.9564 39.7717 56.8231C37.0917 56.1698 34.425 55.4498 31.7583 54.7031C31.185 54.5431 30.9583 54.0364 30.905 53.4364C30.785 52.0098 30.625 50.5831 30.4917 49.1564C30.3983 48.1564 30.1317 47.9031 29.145 47.8898C27.2117 47.8764 25.2917 47.8898 23.3583 47.8898C22.2783 47.8898 22.0783 48.0764 22.1583 49.1564C22.4383 52.7831 22.7317 56.3964 23.0117 60.0231C23.065 60.7298 23.4117 61.1831 24.0783 61.3698C29.385 62.8364 34.6917 64.2898 39.9983 65.7298C40.2383 65.7964 40.5317 65.7831 40.785 65.7164C45.9717 64.2898 51.145 62.8498 56.345 61.4231C57.1717 61.1964 57.6117 60.7431 57.6783 59.8898C57.8383 58.0498 58.025 56.1964 58.185 54.3564C58.705 48.7298 59.1983 43.0898 59.7317 37.4631C59.945 35.2098 59.985 35.2098 57.7317 35.2098C48.705 35.2098 39.6917 35.2098 30.665 35.2098C29.5317 35.2098 29.3183 35.0364 29.2117 33.9164C29.025 31.9031 28.8517 29.8764 28.6917 27.8631C28.6117 26.9031 28.8917 26.6098 29.865 26.6098C31.5983 26.5964 33.3317 26.6098 35.0517 26.6098C43.105 26.6098 51.1717 26.6098 59.225 26.6098C60.4517 26.6098 60.625 26.4631 60.7583 25.2364C60.945 23.4231 61.1183 21.5964 61.2783 19.7831C61.3983 18.5164 61.185 18.3031 59.905 18.3031C53.425 18.3164 46.9317 18.3164 40.425 18.3164Z" fill="#272C34"/>
</g>
<defs>
<clipPath id="clip0_1_361">
<rect width="80" height="80" fill="white" transform="translate(0.544922 0.609863)"/>
</clipPath>
</defs>
</svg>
