<svg width="255" height="48" viewBox="0 0 255 48" fill="none" xmlns="http://www.w3.org/2000/svg">
<path d="M63.5723 25.2967C61.3777 25.2967 59.826 24.925 58.9131 24.1885C58.0003 23.4479 57.5446 22.295 57.5446 20.723V18.6775C57.5446 17.0851 58.0112 15.9458 58.9484 15.2662C59.883 14.584 61.4021 14.2422 63.5045 14.2422H69.95C70.8724 14.2422 71.5777 14.3195 72.0619 14.4673C72.5475 14.6165 72.9626 14.7847 73.3084 14.9678V12.7868C73.3084 11.9092 73.0426 11.3341 72.5122 11.056C71.9792 10.778 71.0799 10.6396 69.8103 10.6396H59V6.58403H70.399C71.9236 6.58403 73.1687 6.74137 74.1385 7.05334C75.1084 7.36531 75.8652 7.78714 76.4091 8.3202C76.9503 8.85055 77.3274 9.47313 77.5363 10.1907C77.7438 10.9055 77.8469 11.6691 77.8469 12.4775V25.298C77.1782 25.298 76.5312 25.0824 75.9059 24.6551C75.2833 24.2292 74.8805 23.4601 74.6933 22.3533C74.418 23.2051 73.8863 23.9105 73.1009 24.4679C72.3142 25.0213 71.2291 25.298 69.8429 25.298H63.5723V25.2967ZM73.3098 17.6399C72.9164 17.4771 72.4648 17.3496 71.9588 17.2588C71.4488 17.1665 70.7693 17.1204 69.9148 17.1204H64.2668C63.5276 17.1204 62.9959 17.2628 62.6717 17.5517C62.3475 17.842 62.1875 18.39 62.1875 19.1998C62.1875 19.9837 62.3489 20.5276 62.6717 20.8274C62.9959 21.1272 63.5154 21.275 64.2302 21.275H69.8781C70.711 21.275 71.4543 21.1367 72.1121 20.86C72.77 20.5833 73.1674 20.0516 73.3071 19.2662V17.6399H73.3098Z" fill="url(#paint0_linear_2_1156)"/>
<path d="M102.293 21.5897V25.6412H99.6101C97.2527 25.6412 95.568 24.8844 94.5521 23.372C93.5348 21.8569 93.0275 19.6134 93.0275 16.6321V10.5772H91.5369V6.58403H93.0275H97.6691H102.292V10.5759H97.6691V16.6321C97.6691 18.2964 97.9227 19.5361 98.4314 20.3567C98.94 21.1774 99.7837 21.5883 100.961 21.5883L102.293 21.5897Z" fill="url(#paint1_linear_2_1156)"/>
<path d="M202.275 21.5897V25.6399H199.59C197.233 25.6399 195.547 24.8844 194.532 23.372C193.514 21.8569 193.008 19.6134 193.008 16.6321V10.5772H191.519V6.58403H193.008H197.651H202.275V10.5759H197.651V16.6321C197.651 18.2964 197.904 19.5361 198.414 20.3567C198.922 21.1774 199.765 21.5883 200.943 21.5883L202.275 21.5897Z" fill="white"/>
<path d="M108.85 6.58403H104.207V25.6412H108.85V6.58403Z" fill="white"/>
<path d="M208.757 6.58403H204.114V25.6412H208.757V6.58403Z" fill="white"/>
<path d="M148.194 6.58403H143.553V25.6412H148.194V6.58403Z" fill="white"/>
<path d="M150.295 25.6426V21.5951L161.627 10.9611H150.295V6.58403H168.209V10.9611L156.982 21.4554L167.671 21.4337V25.6209L150.295 25.6426Z" fill="white"/>
<path d="M175.387 25.9206C173.191 25.9206 171.637 25.553 170.727 24.8125C169.812 24.0732 169.357 22.9176 169.357 21.3483V19.3001C169.357 17.7077 169.823 16.5697 170.76 15.8875C171.695 15.2079 173.214 14.8647 175.315 14.8647H181.762C182.683 14.8647 183.388 14.9421 183.875 15.0926C184.357 15.2405 184.773 15.4087 185.121 15.5931V13.1611C185.121 12.2849 184.856 11.7071 184.324 11.429C183.794 11.1537 182.891 11.014 181.622 11.014H170.188V6.58403H182.21C183.736 6.58403 184.982 6.74137 185.952 7.05334C186.922 7.36531 187.677 7.78714 188.221 8.3202C188.764 8.8519 189.142 9.47584 189.348 10.1907C189.557 10.9055 189.659 11.6691 189.659 12.4775V25.922C188.99 25.922 188.345 25.709 187.721 25.2804C187.095 24.8532 186.693 24.0854 186.507 22.9759C186.23 23.8291 185.698 24.5358 184.913 25.0905C184.128 25.6453 183.043 25.922 181.656 25.922L175.387 25.9206ZM185.121 18.2625C184.727 18.1024 184.277 17.9736 183.77 17.8841C183.262 17.7918 182.58 17.743 181.727 17.743H176.08C175.338 17.743 174.808 17.8868 174.484 18.177C174.16 18.4659 173.998 19.0139 173.998 19.821C173.998 20.6077 174.16 21.1489 174.484 21.4513C174.808 21.7511 175.327 21.899 176.042 21.899H181.689C182.522 21.899 183.268 21.7606 183.923 21.4825C184.581 21.2086 184.981 20.6741 185.119 19.8901V18.2625H185.121Z" fill="white"/>
<path d="M84.8594 13.7295V13.5735L84.8824 13.5518C85.1185 11.8685 86.5617 10.5732 88.3087 10.5732C88.4118 10.5732 88.5148 10.5799 88.6152 10.5881H89.7085V6.60573C89.7085 6.59895 89.4765 6.58403 89.3517 6.58403C88.3127 6.58403 87.446 6.79834 86.639 7.22696C85.8278 7.65422 84.8607 8.34326 84.8607 9.29001V6.6722H80.1989V25.6914H84.8607V14.3466C84.8526 14.2449 84.8445 14.1432 84.8445 14.036C84.8431 13.9329 84.8499 13.8298 84.8594 13.7295Z" fill="url(#paint2_linear_2_1156)"/>
<path d="M141.077 10.8037C140.879 9.85834 140.531 9.07164 140.028 8.44092C139.527 7.8102 138.843 7.34225 137.981 7.03977C137.117 6.7373 136.009 6.58403 134.655 6.58403H133.01C131.541 6.58403 130.374 6.8648 129.51 7.42499C128.646 7.98517 128.04 8.89666 127.691 10.1554C127.294 8.82749 126.589 7.89837 125.573 7.37209C124.558 6.84581 123.151 6.58403 121.356 6.58403H119.887C118.627 6.58403 117.634 6.83632 116.911 7.33954C116.189 7.84004 115.628 8.49924 115.232 9.31579V6.58403H110.856V25.4879H114.495H115.325V12.6538C115.325 11.547 116.223 10.6491 117.331 10.6491H117.729H121.132C121.981 10.6572 122.595 10.8254 122.991 11.1483C123.031 11.1835 123.074 11.2147 123.112 11.2541C123.48 11.6271 123.668 12.1913 123.668 12.955V25.4866H123.686H125.078H128.185V12.955C128.185 12.1628 128.383 11.5769 128.779 11.2052C129.178 10.8336 129.867 10.645 130.845 10.645H134.24C134.8 10.645 135.249 10.7318 135.588 10.9068C135.926 11.0818 136.182 11.3287 136.359 11.6433C136.534 11.958 136.65 12.3378 136.707 12.78C136.765 13.2249 136.795 13.7023 136.795 14.2164V25.4879H141.38V14.1459C141.374 12.8627 141.277 11.7491 141.077 10.8037Z" fill="white"/>
<path d="M246.953 25.568V13.4826C246.953 12.4924 246.764 11.7532 246.387 11.2676C246.009 10.7848 245.324 10.542 244.331 10.542H238.162C237.477 10.542 236.957 10.6898 236.605 10.9841C236.251 11.2812 235.978 11.7478 235.79 12.3853V25.568H231.073V6.43077H235.612V9.19508C236.13 8.17915 236.734 7.46434 237.419 7.05064C238.104 6.6383 239.014 6.43077 240.148 6.43077H244.331C245.722 6.43077 246.894 6.58404 247.838 6.89194C248.784 7.19984 249.541 7.67051 250.106 8.30936C250.675 8.94822 251.081 9.74577 251.33 10.702C251.578 11.6583 251.701 12.7881 251.701 14.0862V25.5693L246.953 25.568Z" fill="white"/>
<path d="M224.702 6.40906H215.24C212.788 6.40906 210.802 8.39616 210.802 10.8458L210.831 21.1909C210.831 23.6419 212.818 25.6276 215.269 25.6276H224.731C227.182 25.6276 229.168 23.6405 229.168 21.1909L229.139 10.8458C229.141 8.39616 227.153 6.40906 224.702 6.40906ZM225.069 19.0031C225.069 20.3974 223.939 21.5273 222.546 21.5273H217.461C216.065 21.5273 214.935 20.3974 214.935 19.0031L214.907 13.0363C214.907 11.642 216.037 10.5108 217.432 10.5108H222.517C223.91 10.5108 225.04 11.642 225.04 13.0363L225.069 19.0031Z" fill="white"/>
<path d="M30.0548 28.5832L30.0534 28.5791C30.0534 28.5764 30.0507 28.5751 30.0507 28.5751C30.0507 28.5724 30.048 28.5696 30.048 28.5696C30.0467 28.5669 30.0439 28.5629 30.0439 28.5629C29.9449 28.3974 29.8378 28.2251 29.7293 28.0461C29.7143 28.023 29.7021 28.004 29.6886 27.981C29.6818 27.9688 29.6736 27.9566 29.6669 27.9484C29.5461 27.7504 29.4186 27.5469 29.2884 27.3394C29.1514 27.1224 29.0104 26.9027 28.8666 26.6734C28.7689 26.5188 28.6672 26.3587 28.5668 26.2C28.518 26.1227 28.4705 26.0481 28.4231 25.9695C28.4231 25.9695 28.4217 25.9695 28.4217 25.9668C28.419 25.9654 28.4176 25.9627 28.4163 25.9586C28.4163 25.9586 28.4122 25.9545 28.4109 25.9518C28.4109 25.9491 28.4068 25.945 28.4041 25.941C27.8222 25.0268 27.1874 24.0258 26.5445 22.9759C25.9015 21.9288 25.2518 20.8328 24.6442 19.7274C24.0352 18.6192 23.4655 17.5002 22.984 16.4056C22.5024 15.311 22.1077 14.2408 21.846 13.2303L22.5255 16.2388C22.0955 15.2323 21.7361 14.2408 21.4919 13.3036L22.6394 18.059C22.8551 18.8878 23.1779 19.7654 23.5713 20.6579C23.9633 21.5531 24.4244 22.4619 24.9195 23.3625C25.4146 24.2618 25.9395 25.1475 26.4604 25.9993C26.9812 26.8484 27.4953 27.6568 27.9673 28.3974C28.0419 28.514 28.1138 28.6334 28.187 28.7487C28.2603 28.8613 28.3322 28.9779 28.4027 29.0878C28.4732 29.2017 28.5438 29.3116 28.613 29.4201C28.6808 29.5273 28.7472 29.6358 28.8123 29.7402L28.8856 29.3143C28.8978 29.336 28.9114 29.355 28.9236 29.374C29.0334 29.5503 29.1406 29.7212 29.2423 29.8853C29.2667 29.9233 29.2898 29.9613 29.3142 30.0033C29.3929 30.1295 29.4715 30.2583 29.5421 30.3777L30.0548 31.2336L30.6923 29.6439L30.0548 28.5832Z" fill="#7C221C"/>
<path d="M43.7339 41.8351C43.6172 41.9097 43.4992 41.9775 43.3785 42.0413C43.3364 42.063 43.2944 42.0806 43.2537 42.1036C43.1737 42.143 43.095 42.1837 43.0123 42.2203C42.9607 42.242 42.9105 42.261 42.8576 42.2827C42.783 42.3112 42.7071 42.3424 42.6298 42.3695C42.5782 42.3844 42.5267 42.4021 42.4765 42.4183C42.3937 42.4455 42.3124 42.4685 42.231 42.4902C42.1672 42.5078 42.1035 42.5255 42.0384 42.5377C42.014 42.5445 41.9909 42.5499 41.9678 42.554C41.8566 42.5784 41.744 42.5987 41.6315 42.615C41.6247 42.615 41.6165 42.6177 41.6084 42.6177C41.5053 42.634 41.4009 42.7303 41.2978 42.7371C41.2693 42.7398 41.2408 42.8293 41.2123 42.8293H41.1947L41.1391 42.7235C41.1174 42.7235 41.0957 42.6598 41.0726 42.6611C41.0509 42.6611 41.0292 42.7683 41.0062 42.7683C40.9845 42.771 40.9614 42.8293 40.9411 42.8293H40.8746C40.8217 42.8293 40.7688 42.7493 40.7173 42.7466C40.6698 42.7466 40.6223 42.7289 40.5762 42.7439C40.5097 42.7384 40.4446 42.695 40.3782 42.6882C40.3714 42.6882 40.3646 42.6652 40.3551 42.6638C40.2398 42.5811 40.1245 42.4875 40.0146 42.3966C39.7529 42.185 39.5074 41.9477 39.2795 41.694C39.0516 41.4404 38.84 41.1623 38.6515 40.872L37.0198 38.3587L36.9438 38.2163C36.9302 38.1973 36.9153 38.1783 36.9031 38.1579C36.8895 38.1389 36.8746 38.124 36.8624 38.1023C36.8489 38.0833 36.8339 38.067 36.8217 38.0481C36.8082 38.0277 36.7932 38.0101 36.7797 37.9924C36.7186 37.9084 36.6522 37.8297 36.5884 37.7456C36.5328 37.6737 36.4799 37.5991 36.4243 37.5272C36.4012 37.5001 36.3782 37.477 36.3592 37.4499C36.3361 37.4228 36.3158 37.3929 36.2941 37.3672C36.2154 37.2709 36.1313 37.1786 36.0499 37.085C35.9903 37.0131 35.9347 36.9426 35.8736 36.8761C35.8587 36.8585 35.8424 36.8463 35.8289 36.8287C35.8126 36.811 35.799 36.7907 35.7827 36.7758C35.681 36.6632 35.5725 36.5574 35.4667 36.4502C35.4084 36.3906 35.3514 36.3255 35.2917 36.2631C35.2836 36.2576 35.2754 36.2509 35.2673 36.2441C35.2592 36.2332 35.251 36.2264 35.2429 36.2169C35.0598 36.0393 34.8021 35.8684 34.6108 35.7029C34.6095 35.7002 34.5335 35.7002 34.5335 35.6974V35.6025H34.6746C34.5213 35.6025 34.3653 35.3895 34.208 35.2661C34.0493 35.1386 33.8879 35.0437 33.7251 34.9284C33.3982 34.6951 33.0618 34.4889 32.7146 34.2868C32.5274 34.1797 32.3362 34.0834 32.1449 33.983C31.9794 33.9002 31.814 33.8216 31.6458 33.7443C31.464 33.6602 31.2809 33.5842 31.0937 33.5069C31.0937 33.5055 31.0924 33.5069 31.0924 33.5055C30.9933 33.4676 30.893 33.4364 30.794 33.3984C30.7044 33.3658 30.6149 33.3007 30.5254 33.3007C30.5023 33.3007 30.4779 33.3685 30.4549 33.3618C30.4589 33.3523 30.4522 33.3455 30.4413 33.3373C30.4399 33.3428 30.4359 33.3441 30.4332 33.3495C30.3993 33.3373 30.3653 33.3224 30.3314 33.3089C30.2962 33.3034 30.2718 33.3007 30.2799 33.3007H30.3152C30.1524 33.237 29.9883 33.1624 29.8241 33.1149C29.7075 33.0796 29.5908 33.0254 29.4742 32.9942C29.3264 32.9548 29.1785 32.9114 29.0293 32.8775C28.8231 32.8328 28.617 32.7853 28.4108 32.7487C28.0541 32.689 27.6987 32.6402 27.3393 32.6076C26.9798 32.5751 26.6217 32.5615 26.2636 32.5615C26.1782 32.5615 26.0941 32.5588 26.0086 32.5615C25.9245 32.5628 25.8404 32.9277 25.7564 32.9304C25.694 32.9331 25.8947 31.9335 25.8323 31.9335L25.5732 32.2075C25.5556 32.2075 25.5244 32.9399 25.5095 32.9399C25.4254 32.9481 25.3427 32.7704 25.2599 32.7772C25.1446 32.7894 25.0293 32.708 24.914 32.7229C24.8978 32.7229 24.8815 32.6809 24.8652 32.6822C24.8503 32.6849 24.8367 32.6605 24.8232 32.6619C24.678 32.6781 24.5343 32.6903 24.3932 32.7107C24.3484 32.7175 24.3077 32.7188 24.2643 32.7243C24.225 32.7338 24.187 32.7378 24.1477 32.746C24.0894 32.7555 24.0283 32.7636 23.97 32.7744C23.8371 32.8002 23.7041 33.0471 23.5739 33.0783C23.5699 33.0796 23.5658 33.2994 23.5617 33.2994H23.5549C23.5495 33.2994 23.5441 33.0864 23.54 33.0878C23.2959 33.1461 23.0558 33.104 22.8171 33.18C22.7411 33.2031 22.6652 33.1759 22.5892 33.2031C22.4169 33.2614 22.246 33.2966 22.0765 33.3645C22.0317 33.3835 21.9856 33.3835 21.9408 33.4024C21.9083 33.416 21.8785 33.4269 21.8459 33.4391C21.656 33.5218 21.4675 33.6073 21.2816 33.7009C21.2369 33.7253 21.1908 33.7429 21.146 33.7646C21.1352 33.77 21.1257 33.7755 21.1162 33.7809C20.8991 33.8948 20.6862 34.0182 20.4746 34.1498C20.457 34.1593 20.4393 34.1702 20.4217 34.1783C20.3769 34.2068 20.3322 34.2407 20.2874 34.2705C20.1247 34.375 19.9646 34.4862 19.8059 34.6001C19.734 34.653 19.6635 34.7046 19.5916 34.7588C19.4234 34.8863 19.2579 35.0193 19.0924 35.159C19.0585 35.1874 19.0219 35.2132 18.988 35.2444C18.9758 35.2553 18.9636 35.2648 18.9514 35.2756C18.9283 35.296 18.9039 35.3149 18.8822 35.3339C18.6923 35.5008 18.5078 35.6757 18.322 35.8575C18.284 35.8941 18.2461 35.9362 18.2081 35.9755C18.0372 36.1451 17.8703 36.3214 17.7049 36.5045C17.6791 36.533 17.652 36.5574 17.6275 36.5859C17.6181 36.5967 17.6086 36.6089 17.5991 36.6198C17.5896 36.6279 17.5801 36.6401 17.5706 36.6496C17.5611 36.6605 17.5516 36.6727 17.5421 36.6822C17.5326 36.693 17.5231 36.7039 17.5136 36.7147C17.4553 36.7785 17.397 36.849 17.3386 36.9141C17.3346 36.9209 17.3305 36.9263 17.3264 36.9304C17.3237 36.9331 17.3224 36.9358 17.3197 36.9399C17.2681 37.0023 17.2179 37.062 17.1664 37.1217C17.1094 37.1949 17.0511 37.2627 16.9955 37.3346C16.9385 37.4065 16.8815 37.477 16.8232 37.5503C16.7839 37.6018 16.7459 37.6493 16.7079 37.7008C16.6699 37.751 16.6306 37.8026 16.5953 37.8527C16.5682 37.888 16.5424 37.9246 16.5153 37.9613C16.514 37.9667 16.5112 37.968 16.5085 37.9721C16.5058 37.9762 16.5031 37.9802 16.5018 37.983C16.4977 37.9897 16.4909 37.9979 16.4841 38.006C16.4489 38.0548 16.4109 38.1077 16.3756 38.1593C16.3376 38.2122 16.3024 38.2678 16.2657 38.3207C16.2481 38.3478 16.2291 38.3709 16.2115 38.3994C16.2047 38.4102 16.1979 38.4238 16.1898 38.4333C16.1803 38.4482 16.1694 38.4618 16.1599 38.4794C16.0908 38.5865 16.0216 38.6923 15.9565 38.8009C15.9524 38.809 15.947 38.8185 15.9429 38.8253C15.9429 38.8266 15.9416 38.8266 15.9402 38.828C15.9389 38.8307 15.9348 38.8375 15.9321 38.8443C15.8751 38.9378 15.8208 39.0314 15.7679 39.1237C15.753 39.1522 15.7381 39.182 15.7218 39.2091C15.7123 39.2254 15.7028 39.239 15.6933 39.258C15.6852 39.2729 15.6771 39.2864 15.6676 39.3027C15.6581 39.319 15.6499 39.3353 15.6418 39.3502C15.635 39.3651 15.6255 39.3827 15.6187 39.3977C15.6106 39.4139 15.6011 39.4261 15.593 39.4424L14.6706 40.8612C14.4726 41.1677 14.2474 41.4553 14.006 41.7211C13.7646 41.987 13.5014 42.2298 13.222 42.4495C13.1488 42.5078 13.0715 42.5594 12.9955 42.6123C12.9752 42.6218 12.9535 42.7398 12.9318 42.7411C12.9101 42.7425 12.8856 42.8307 12.8639 42.8307H12.731C12.6795 42.8307 12.6293 42.7534 12.5777 42.7534C12.5289 42.7506 12.4787 42.7547 12.4299 42.7601C12.4109 42.7574 12.3919 42.714 12.3743 42.7127C12.3607 42.7099 12.3472 42.6869 12.3349 42.6869C12.2264 42.6788 12.1206 42.6557 12.0135 42.6408C11.9958 42.6367 11.9769 42.6299 11.9592 42.6272C11.8534 42.6109 11.749 42.5906 11.6445 42.5675C11.6188 42.5621 11.593 42.554 11.5686 42.5499C11.4682 42.5268 11.3665 42.4984 11.2661 42.4685C11.2417 42.4604 11.2173 42.4549 11.1929 42.4468C11.1088 42.4183 11.0247 42.3898 10.9419 42.3614C10.9162 42.3505 10.889 42.341 10.8633 42.3315C10.7643 42.2963 10.6679 42.2542 10.5703 42.2094C10.5472 42.1999 10.5228 42.5879 10.4998 42.5784C10.4007 42.5309 10.3031 42.828 10.2068 42.828C10.0956 42.828 9.98704 42.3003 9.87853 42.2325C9.66965 42.0969 9.47298 41.7469 9.28851 41.5828C9.28308 41.5774 9.2763 41.4729 9.27087 41.4675C9.09997 41.3169 8.94127 41.1013 8.79343 40.9331C8.74595 40.8748 8.69848 40.7934 8.65236 40.7351C8.62252 40.6998 8.59268 40.6496 8.5642 40.613C8.50859 40.5384 8.45704 40.457 8.40686 40.381C8.3838 40.3458 8.35939 40.3119 8.33768 40.278C8.26715 40.1735 8.19933 40.0582 8.13829 39.9443C8.12473 39.9185 8.11252 39.8941 8.10167 39.8697C8.05556 39.7842 8.01079 39.692 7.9701 39.6038C7.95383 39.5672 7.93891 39.5279 7.92263 39.4913C7.89008 39.4139 7.85617 39.3366 7.82768 39.2566C7.81005 39.2091 7.79649 39.1616 7.78021 39.1155C7.75579 39.0436 7.73138 38.9718 7.70968 38.8999C7.69476 38.8497 7.68391 38.7995 7.6717 38.7507C7.65271 38.6788 7.63236 38.6082 7.61744 38.535C7.59574 38.4346 7.57675 38.3343 7.56048 38.2325C7.55776 38.2108 7.55505 38.1878 7.55098 38.1634C7.54013 38.0725 7.52792 37.9762 7.51978 37.8799C7.51707 37.8622 7.56997 37.8419 7.56861 37.8229C7.56048 37.7117 7.60931 37.6059 7.60931 37.496V37.4431C7.60931 37.3319 7.55776 37.222 7.5659 37.1094C7.5659 37.0972 7.54013 37.0877 7.54013 37.081C7.54827 36.963 7.54556 36.8436 7.56319 36.7256L3.73548 36.5126C4.09356 37.3414 3.8033 38.4726 2.87146 38.8117C2.88367 38.8619 2.89723 38.9134 2.90944 38.965C2.923 39.0179 2.93385 39.0735 2.95013 39.1291C2.95284 39.1372 2.95556 39.1467 2.95962 39.1576C2.98675 39.2485 3.01659 39.338 3.04643 39.4248C3.06407 39.4777 3.07899 39.5279 3.09798 39.5794C3.10069 39.5862 3.1034 39.593 3.10611 39.6011C3.14138 39.6947 3.18207 39.791 3.22141 39.8846C3.2404 39.9307 3.25667 39.9768 3.27702 40.0216C3.27837 40.0257 3.27973 40.0297 3.28244 40.0338C3.2838 40.0379 3.28516 40.0419 3.28651 40.0447C3.41673 40.3309 3.56593 40.6035 3.73548 40.8666C3.73954 40.8748 3.74497 40.8843 3.7504 40.8924C3.77752 40.9331 3.80736 40.9724 3.83585 41.0145C3.89417 41.0999 3.95385 41.1854 4.0176 41.2695C4.02845 41.2857 4.03795 41.2993 4.0488 41.3156C4.07593 41.3495 4.10577 41.382 4.13425 41.416C4.17766 41.4702 4.2197 41.5272 4.26447 41.5801C4.28752 41.6059 4.31194 41.6276 4.33364 41.6574C4.34992 41.6764 4.36348 41.694 4.38111 41.7103C4.40553 41.7388 4.43266 41.7632 4.45707 41.789C4.5276 41.8663 4.59949 41.9395 4.67409 42.0114C4.69851 42.0372 4.71885 42.0602 4.74462 42.0847C4.78803 42.1253 4.83279 42.166 4.87755 42.2054C4.89518 42.2217 4.91146 42.2352 4.92909 42.2515C4.93859 42.2596 4.94808 42.2691 4.95893 42.2786C5.03082 42.341 5.10542 42.4034 5.18138 42.4631C5.20173 42.4794 5.22343 42.4929 5.24377 42.5092C5.26548 42.5268 5.28582 42.5404 5.30888 42.5567C5.34279 42.5852 5.37806 42.6123 5.41197 42.6381C5.49064 42.6923 5.57337 42.7506 5.65476 42.8022C5.70359 42.8347 5.75513 42.8659 5.80667 42.8971C5.85686 42.927 5.9084 42.9582 5.95859 42.9894C5.99114 43.0056 6.02234 43.0219 6.05489 43.0423C6.0576 43.0423 6.06032 43.0463 6.06303 43.0477C6.07931 43.0558 6.09558 43.068 6.11322 43.0762C6.16611 43.1019 6.21766 43.1318 6.27056 43.1589C6.3221 43.1847 6.375 43.2077 6.4279 43.2322C6.44553 43.2403 6.46045 43.2511 6.47808 43.2593C6.48622 43.2634 6.49572 43.2647 6.50521 43.2715C6.51877 43.2769 6.53098 43.2837 6.54319 43.2905C6.63542 43.3298 6.72766 43.3705 6.8226 43.4071C6.84159 43.4139 6.86194 43.422 6.88228 43.4288C6.9067 43.441 6.93111 43.4478 6.95553 43.456C7.00571 43.4749 7.05454 43.4939 7.10337 43.5116C7.17391 43.536 7.24444 43.555 7.31497 43.5794C7.32718 43.5794 7.33939 43.5862 7.35159 43.5902C7.35566 43.5916 7.35973 43.5916 7.36516 43.5957C7.37194 43.597 7.38008 43.5997 7.38822 43.6011C7.47367 43.6282 7.55912 43.6499 7.64593 43.6716C7.68391 43.6811 7.72324 43.6879 7.76122 43.696C7.78564 43.7015 7.81141 43.7096 7.83718 43.715C7.86024 43.7191 7.88329 43.7259 7.90635 43.7313C7.99316 43.7489 8.07997 43.7625 8.16949 43.7774C8.19255 43.7828 8.21697 43.7842 8.24138 43.7883C8.24816 43.7896 8.25494 43.7923 8.26173 43.7923C8.27122 43.7951 8.28072 43.7951 8.29021 43.7951C8.33904 43.8032 8.38516 43.81 8.43263 43.8154C8.49502 43.8222 8.55877 43.8507 8.62252 43.8574C8.68492 43.8629 8.74867 43.89 8.81242 43.8927C8.87481 43.8995 8.93856 43.6716 9.00231 43.673C9.06606 43.6784 9.12981 43.4953 9.19356 43.4953H9.2763C9.30478 43.4953 9.33056 43.6689 9.35904 43.6689C9.38345 43.6689 9.40787 43.7327 9.43228 43.7137C9.46755 43.711 9.50553 43.7774 9.54079 43.7761L9.52181 43.8154C9.58284 43.814 9.64388 43.6567 9.70492 43.6526C9.72119 43.6513 9.73883 43.4953 9.7551 43.4953H9.77952C9.79715 43.4953 9.81614 43.6621 9.83513 43.6594C9.93957 43.6472 10.044 43.7191 10.1471 43.7055C10.1878 43.6974 10.2271 43.7327 10.2651 43.7259C10.2773 43.7259 10.2895 43.7449 10.3017 43.7435C10.3139 43.7422 10.3248 43.7489 10.337 43.7462C10.3763 43.7394 10.4157 43.7381 10.4536 43.7327C10.5567 43.711 10.6571 43.692 10.7588 43.6676C10.7805 43.6621 10.8009 43.6567 10.8226 43.6526C10.828 43.6513 10.8334 43.6513 10.8402 43.6472C10.8456 43.6472 10.8524 43.6431 10.8606 43.6418C10.8768 43.6377 10.8958 43.6336 10.9135 43.6282C10.965 43.6147 11.0152 43.5997 11.0654 43.5848C11.1169 43.5713 11.1671 43.5563 11.2159 43.5387C11.2661 43.5238 11.3163 43.5061 11.3665 43.4899L13.416 42.7669C13.1569 42.9677 12.8843 43.1548 12.5981 43.3176C12.2834 43.498 11.9552 43.6526 11.6161 43.7788C12.6388 43.3963 13.6628 43.0111 14.6856 42.6231C14.9595 42.5228 15.224 42.3966 15.4777 42.2542C15.73 42.1091 15.9714 41.9436 16.2006 41.7618C16.4299 41.5774 16.6442 41.3766 16.8422 41.1555C17.0402 40.9358 17.2233 40.6998 17.3875 40.4475L18.1348 39.2946C18.1796 39.2078 18.2284 39.1223 18.2786 39.0382C18.3125 38.9785 18.3451 38.9175 18.379 38.8592C18.4183 38.7968 18.459 38.7303 18.4997 38.6679C18.5323 38.6137 18.5635 38.5621 18.5974 38.5133C18.6476 38.436 18.6991 38.36 18.7506 38.2868C18.7818 38.2393 18.813 38.1945 18.8442 38.1484C18.9283 38.0318 19.0138 37.9138 19.1006 37.7971C19.6214 37.1298 20.1586 36.5506 20.716 36.0582C21.2749 35.5672 21.8554 35.1603 22.4644 34.8375C23.0721 34.516 23.7082 34.276 24.3756 34.1186C25.0429 33.9613 25.7469 33.8826 26.4861 33.8826C26.7682 33.8826 27.049 33.8948 27.3284 33.9192C27.6092 33.9436 27.8886 33.9803 28.1666 34.0291C28.4461 34.0766 28.7228 34.1376 28.9981 34.2095C29.2748 34.2827 29.5488 34.3668 29.8214 34.4631C30.1212 34.5703 30.4155 34.6856 30.7017 34.8185C30.9893 34.9487 31.2687 35.0925 31.54 35.2498C31.8126 35.4072 32.0771 35.5781 32.3321 35.7598C32.5885 35.9402 32.838 36.1342 33.0768 36.3417C33.249 36.4923 33.4172 36.6456 33.5813 36.8097C33.7468 36.9724 33.9069 37.1447 34.0628 37.3251C34.2202 37.5055 34.3748 37.694 34.5267 37.8907C34.6786 38.0901 34.8278 38.3017 34.9757 38.5214L36.2276 40.4489C36.3823 40.6876 36.5545 40.9127 36.739 41.1189C36.9235 41.3278 37.1242 41.5231 37.3358 41.6994C37.5474 41.8744 37.7712 42.0345 38.0086 42.1769C38.2419 42.3193 38.4887 42.4427 38.7424 42.5499C39.6552 42.927 40.5667 43.3068 41.4782 43.6852C41.1622 43.555 40.857 43.399 40.5653 43.2227C40.2724 43.0463 39.9943 42.8497 39.7298 42.6286C39.7271 42.6245 39.723 42.6218 39.7203 42.6191C40.0675 42.7547 40.4161 42.8863 40.7634 43.0233C41.1106 43.1576 41.4483 43.2891 41.7495 43.4071C41.7942 43.4248 41.839 43.4397 41.8837 43.456C41.9285 43.4722 41.9733 43.4872 42.0194 43.5048C42.0641 43.5184 42.1089 43.5333 42.155 43.5468C42.1998 43.5604 42.2459 43.5251 42.2934 43.5387C42.3015 43.5414 42.3083 43.4967 42.3164 43.4967H42.3232C42.3992 43.4967 42.4751 43.5889 42.5524 43.6065C42.6393 43.6309 42.7247 43.5523 42.8142 43.5713C42.8359 43.574 42.859 43.4967 42.882 43.4967H42.9051C42.9146 43.4967 42.9254 43.6201 42.9363 43.6214C42.9838 43.6309 43.0312 43.6988 43.0801 43.7069C43.1696 43.7205 43.2591 43.7639 43.3486 43.7734C43.4124 43.7815 43.4761 43.8249 43.5412 43.8303C43.605 43.8344 43.6687 43.8737 43.7339 43.8778C43.799 43.8819 43.8627 43.6648 43.9278 43.6662C43.9929 43.6676 44.058 43.4967 44.1231 43.4967H44.2059C44.2344 43.4967 44.2615 43.6689 44.2886 43.6689C44.3157 43.6662 44.3429 43.7082 44.3686 43.7015C44.3944 43.7001 44.4188 43.7693 44.4446 43.7679L44.4527 43.8046C44.4812 43.8032 44.5111 43.8168 44.5395 43.8154C44.5775 43.8127 44.6155 43.8181 44.6521 43.8154C44.6901 43.8127 44.7294 43.8168 44.7661 43.8127C44.8461 43.8045 44.9248 43.7951 45.0034 43.7842C45.0211 43.7815 45.0387 43.6404 45.0563 43.6377C45.0617 43.6377 45.0672 43.4967 45.0699 43.4967H45.0794C45.1838 43.4967 45.2869 43.6052 45.39 43.5848C45.4171 43.5794 45.4429 43.6431 45.47 43.6364C45.5053 43.6296 45.5419 43.6567 45.5772 43.6486C45.6165 43.6391 45.6586 43.6486 45.6979 43.6364C45.7318 43.6282 45.7657 43.6255 45.801 43.6174C45.8566 43.6024 45.9122 43.5957 45.9665 43.5794C46.0166 43.5645 46.0668 43.5482 46.1184 43.5319C46.1482 43.5224 46.1808 43.5156 46.212 43.5048C46.2391 43.4966 46.2635 43.4844 46.2879 43.4763C46.3924 43.4397 46.4968 43.4003 46.5985 43.3597C46.6365 43.3447 46.6758 43.3312 46.7125 43.3149C46.7315 43.3068 46.7491 43.2986 46.7667 43.2891C46.7898 43.2783 46.8156 43.2688 46.84 43.2593C46.9241 43.2213 47.0068 43.1779 47.0895 43.1345C47.1262 43.1155 47.1628 43.1019 47.1981 43.083C47.2062 43.0762 47.2143 43.0748 47.2238 43.0694C47.3757 42.9867 47.5236 42.9012 47.6687 42.809L43.7339 41.8351Z" fill="#7C221C"/>
<path d="M26.3533 3.58237C26.7493 3.63255 28.0922 4.74207 29.9708 6.58133C31.848 8.42194 34.2623 10.9896 36.7988 13.9519C39.3379 16.9143 42.0019 20.2699 44.3769 23.6826C46.7519 27.0953 48.8394 30.5662 50.2229 33.7578C50.7777 34.8036 51.0083 35.8209 51.0123 36.7785C51.0164 37.7334 50.7967 38.6245 50.4508 39.4234C50.1049 40.2196 49.6342 40.9209 49.1378 41.496C48.6427 42.0711 48.1205 42.516 47.6729 42.8008C47.4057 42.9731 47.129 43.1209 46.8455 43.2511C46.5607 43.3814 46.269 43.4899 45.9706 43.5767C45.6722 43.6621 45.3684 43.7286 45.0605 43.772C44.7526 43.8181 44.4406 43.8385 44.126 43.8385C43.5699 43.8385 43.0259 43.7693 42.5037 43.6377C41.9815 43.5061 41.4797 43.3081 41.009 43.0531C40.5383 42.7981 40.1029 42.4848 39.7055 42.1199C39.3095 41.7551 38.9554 41.3373 38.6543 40.8734L37.0226 38.3614L36.9466 38.219C36.7784 37.983 36.6048 37.7551 36.4285 37.5299C36.2481 37.3075 36.065 37.0891 35.8764 36.8802C35.6879 36.67 35.4939 36.4652 35.2932 36.2671C35.0938 36.0718 34.8876 35.8819 34.6774 35.7029C34.3709 35.437 34.0548 35.1902 33.7279 34.9555C33.401 34.7236 33.0647 34.5052 32.7161 34.3044C32.3702 34.1051 32.0135 33.9206 31.6486 33.7524C31.281 33.5856 30.908 33.435 30.5255 33.3007C30.1769 33.1759 29.827 33.0728 29.4743 32.9806C29.1217 32.8884 28.7676 32.8111 28.4123 32.75C28.0555 32.6903 27.7002 32.6442 27.3407 32.613C26.9826 32.5818 26.6232 32.5669 26.2651 32.5669C25.317 32.5669 24.4164 32.6659 23.5605 32.8707C22.7046 33.0728 21.8908 33.378 21.1136 33.789C20.335 34.2014 19.5931 34.7181 18.881 35.3448C18.1675 35.9741 17.4839 36.712 16.8206 37.5625C16.6999 37.7185 16.5833 37.8731 16.4707 38.0318C16.3581 38.1891 16.2496 38.3465 16.1479 38.5079C16.0448 38.6652 15.9471 38.8266 15.8535 38.984C15.7599 39.144 15.6718 39.3014 15.5904 39.4587L14.668 40.8775C14.3656 41.3427 14.0115 41.7618 13.6155 42.1294C13.2181 42.4956 12.78 42.8103 12.3093 43.0653C11.8386 43.3203 11.3368 43.5184 10.8132 43.6526C10.2896 43.7869 9.74437 43.8561 9.18961 43.8561C8.87628 43.8561 8.56296 43.8303 8.25642 43.7883C7.94716 43.7449 7.64333 43.6743 7.34764 43.5889C7.04924 43.5021 6.75761 43.3909 6.47413 43.2606C6.19065 43.1277 5.9153 42.9772 5.6508 42.8049C5.12317 42.4644 4.65929 42.0521 4.26187 41.5855C3.86581 41.1189 3.53756 40.6021 3.28663 40.0487C3.03434 39.4967 2.86073 38.9094 2.7712 38.3058C2.68033 37.7035 2.6749 37.0837 2.76171 36.4652C2.84309 36.1939 2.9299 35.924 3.02485 35.6554C3.11844 35.3882 3.22017 35.121 3.32868 34.8592C3.43583 34.5974 3.54977 34.3356 3.67049 34.0834C3.7912 33.8284 3.91735 33.5761 4.04892 33.3292L5.61147 30.9298C6.45921 29.8324 7.36256 28.8721 8.31881 28.0502C9.27642 27.2268 10.2842 26.5378 11.3449 25.9871C12.4056 25.4364 13.5178 25.0214 14.6789 24.7447C15.84 24.4666 17.0498 24.3269 18.3086 24.3269C18.8172 24.3269 19.3218 24.3513 19.8237 24.3947C20.3255 24.4422 20.8247 24.5086 21.3211 24.5955C21.8148 24.685 22.3072 24.7976 22.7914 24.9305C23.277 25.0661 23.7585 25.2221 24.2346 25.3998C24.746 25.5924 25.2465 25.8053 25.7334 26.0441C26.2217 26.2801 26.6964 26.5432 27.159 26.8267C27.6229 27.1129 28.0732 27.4208 28.5086 27.7531C28.9453 28.0854 29.3685 28.4408 29.7781 28.8152L30.691 29.6507L30.0535 28.5886C29.9382 28.3947 29.8161 28.1953 29.6859 27.9878C29.5557 27.7802 29.4214 27.5619 29.2817 27.3394C29.142 27.117 28.9982 26.8918 28.8517 26.6585C28.7025 26.4252 28.5533 26.1892 28.4001 25.9478C27.8182 25.0336 27.1834 24.0326 26.5405 22.9827C25.8975 21.9356 25.2478 20.8396 24.6402 19.7342C24.0312 18.626 23.4615 17.507 22.98 16.4124C22.4984 15.3178 22.1037 14.2476 21.8419 13.2371C21.7253 12.3894 21.7063 11.5674 21.7877 10.7698C21.8691 9.97093 22.0481 9.19915 22.3248 8.45314C22.6015 7.70713 22.9759 6.9896 23.4479 6.29785C23.9199 5.60609 24.4869 4.94418 25.1502 4.30939C25.2885 4.18324 25.4092 4.07745 25.5205 3.98793C25.633 3.90112 25.7348 3.82787 25.8297 3.7709C25.9247 3.71529 26.0128 3.67053 26.0983 3.64205C26.1864 3.60949 26.2692 3.58779 26.3533 3.58237Z" fill="url(#paint3_radial_2_1156)"/>
<path d="M50.5443 33.6005C51.1262 34.7005 51.3663 35.768 51.3717 36.7717C51.3771 37.7727 51.1452 38.714 50.783 39.5509C50.4209 40.3892 49.9258 41.1284 49.4049 41.7293C48.8855 42.3329 48.3375 42.8049 47.8682 43.1033C47.586 43.2823 47.2944 43.4397 46.9933 43.578C46.6935 43.715 46.3843 43.8276 46.0696 43.9198C45.7549 44.0121 45.4348 44.0812 45.1106 44.1274C44.7851 44.1748 44.4569 44.2006 44.1273 44.2006C43.5413 44.2006 42.9676 44.1247 42.4155 43.9863C41.8635 43.8452 41.3345 43.6364 40.8394 43.3691C40.3443 43.1006 39.8831 42.7683 39.4654 42.3817C39.049 41.9978 38.676 41.557 38.3586 41.066L36.8042 38.6761C36.621 38.4021 36.4352 38.1403 36.2453 37.8961C36.0581 37.6466 35.8669 37.4133 35.6716 37.1895C35.4749 36.9684 35.2755 36.7568 35.0734 36.5533C34.8686 36.3485 34.6597 36.1559 34.4454 35.9714C34.1484 35.7164 33.8405 35.4736 33.5217 35.2471C33.203 35.0233 32.8747 34.8117 32.5383 34.6164C32.2006 34.4224 31.8534 34.2434 31.4966 34.0793C31.1399 33.9152 30.7764 33.7687 30.4034 33.6385C30.0656 33.5218 29.7252 33.416 29.3834 33.3265C29.0402 33.2383 28.6971 33.161 28.3512 33.1013C28.0053 33.0416 27.6594 32.9969 27.3108 32.9657C26.9636 32.9331 26.6136 32.9196 26.2651 32.9196C25.3468 32.9196 24.476 33.0145 23.6459 33.2126C22.8171 33.4106 22.0291 33.7049 21.2722 34.1051C20.5167 34.5065 19.7978 35.0084 19.1034 35.6228C18.4102 36.2319 17.7443 36.9507 17.0973 37.7795C16.982 37.9301 16.8694 38.0847 16.7609 38.2366C16.6524 38.3912 16.5479 38.5458 16.4476 38.6991C16.3472 38.8565 16.2509 39.0111 16.16 39.1684C16.0678 39.3217 15.9796 39.4804 15.8996 39.6364L14.9705 41.0674C14.6517 41.5584 14.276 42.0006 13.8582 42.3871C13.4391 42.7764 12.9766 43.1087 12.4801 43.3773C11.9837 43.6486 11.4534 43.8574 10.9013 43.9972C10.3479 44.1382 9.77415 44.2128 9.18819 44.2128C8.85724 44.2128 8.52763 44.1898 8.20346 44.1409C7.87793 44.0935 7.55782 44.0229 7.24314 43.9293C6.93117 43.8371 6.62192 43.7205 6.32351 43.5821C6.02375 43.4437 5.73349 43.2837 5.45407 43.1033C4.89795 42.7425 4.4083 42.3071 3.98918 41.8161C3.57005 41.3251 3.22418 40.7771 2.95833 40.1925C2.69383 39.6093 2.50801 38.9853 2.41442 38.3465C2.31811 37.7062 2.31133 37.0484 2.40357 36.3919C2.49037 36.1057 2.58261 35.8209 2.68027 35.5428C2.77793 35.2648 2.88237 34.9894 2.99224 34.7208C3.10346 34.4496 3.22011 34.1851 3.3449 33.9206C3.46833 33.6588 3.5999 33.3997 3.73689 33.1474L5.31165 30.7236C6.18109 29.5991 7.10614 28.6158 8.0841 27.7735C9.06476 26.9284 10.097 26.2245 11.1821 25.6643C12.2672 25.1 13.4038 24.6768 14.592 24.3961C15.7802 24.1126 17.0186 23.9715 18.3058 23.9715C18.8239 23.9715 19.3421 23.9932 19.8561 24.0393C20.3689 24.0854 20.8789 24.1546 21.3848 24.2441C21.8907 24.335 22.3926 24.4476 22.889 24.586C23.3855 24.7216 23.8765 24.8803 24.3607 25.062C24.7934 25.2207 25.2179 25.3998 25.633 25.5965C26.048 25.7931 26.4563 26.0034 26.8551 26.2326C27.2539 26.4605 27.6445 26.7046 28.0256 26.9637C28.4081 27.2255 28.7798 27.5022 29.1433 27.7938C29.0633 27.6636 28.9805 27.532 28.8951 27.3964C28.8096 27.2607 28.7242 27.1237 28.636 26.984C28.5478 26.847 28.4583 26.706 28.3674 26.5622C28.2766 26.4211 28.1857 26.2747 28.0935 26.1295C27.5089 25.2099 26.87 24.2075 26.2257 23.1536C25.5787 22.1024 24.9263 20.9983 24.3119 19.882C23.6988 18.7671 23.1264 17.6358 22.6394 16.5277C22.1539 15.4209 21.7524 14.3344 21.4852 13.3063C21.3658 12.4219 21.3468 11.566 21.4295 10.7359C21.5136 9.90718 21.6981 9.10691 21.9843 8.33377C22.2692 7.56064 22.6557 6.81598 23.1427 6.10117C23.6296 5.38771 24.2169 4.70003 24.9032 4.04489C25.0552 3.90383 25.1935 3.78582 25.321 3.68409C25.4499 3.58643 25.5679 3.5037 25.6832 3.43995C25.7985 3.3762 25.907 3.32872 26.0182 3.29617C26.1294 3.2609 26.2393 3.24191 26.3546 3.22971C26.8551 3.29074 28.2834 4.45181 30.227 6.3521C32.1707 8.25239 34.6312 10.8906 37.1961 13.9044C39.7624 16.9183 42.4331 20.3106 44.7946 23.7138C47.1628 27.1183 49.2151 30.5378 50.5443 33.6005ZM47.6715 42.7995C48.1191 42.5146 48.6413 42.0697 49.1364 41.4946C49.6328 40.9195 50.1035 40.2196 50.4494 39.4221C50.7939 38.6232 51.015 37.732 51.0109 36.7771C51.0068 35.8209 50.7763 34.8036 50.2215 33.7565C48.838 30.5662 46.7519 27.0939 44.3755 23.6812C42.0018 20.2686 39.3365 16.9129 36.7974 13.9506C34.2596 10.9909 31.8466 8.42194 29.9693 6.57997C28.0907 4.74343 26.7493 3.6312 26.3519 3.58101C26.2678 3.58643 26.185 3.60814 26.1009 3.63526C26.0155 3.66375 25.9273 3.70851 25.8324 3.76412C25.7374 3.82109 25.6357 3.89433 25.5231 3.98114C25.4105 4.07066 25.2898 4.17782 25.1528 4.3026C24.4896 4.93739 23.9212 5.59931 23.4506 6.29106C22.9799 6.98282 22.6042 7.70034 22.3275 8.44635C22.0508 9.19237 21.8717 9.96415 21.7903 10.7631C21.709 11.5606 21.728 12.3826 21.8432 13.2317C22.105 14.2408 22.4997 15.311 22.9813 16.4056C23.4628 17.5016 24.0324 18.6192 24.6415 19.7274C25.2491 20.8315 25.8988 21.9288 26.5418 22.9759C27.1833 24.0244 27.8195 25.0268 28.4014 25.941C28.5533 26.1838 28.7038 26.4198 28.853 26.6517C29.0009 26.885 29.1447 27.1115 29.2844 27.3326C29.4241 27.5551 29.5597 27.7721 29.6886 27.981C29.8174 28.1899 29.9409 28.3893 30.0561 28.5819L30.6936 29.6439L29.7808 28.8084C29.3725 28.434 28.9493 28.0786 28.5112 27.7463C28.0758 27.4154 27.6255 27.1061 27.1616 26.8199C26.6991 26.5364 26.2244 26.2733 25.7361 26.0373C25.2478 25.7986 24.7486 25.5856 24.2373 25.3957C23.7612 25.2153 23.2797 25.0593 22.7941 24.9237C22.3085 24.7908 21.8175 24.6782 21.321 24.5887C20.826 24.5019 20.3282 24.4354 19.8249 24.3879C19.3231 24.3445 18.8172 24.3228 18.3099 24.3228C17.0511 24.3228 15.8413 24.4625 14.6802 24.7379C13.5191 25.0146 12.4055 25.4296 11.3462 25.9803C10.2855 26.531 9.27636 27.2201 8.32011 28.0434C7.36386 28.8653 6.46186 29.8257 5.61277 30.923L4.05021 33.3224C3.91729 33.5693 3.79115 33.8202 3.67178 34.0766C3.55107 34.3302 3.43713 34.5906 3.32997 34.8524C3.22146 35.1142 3.12109 35.3814 3.02614 35.6486C2.9312 35.9158 2.84303 36.1857 2.76301 36.4584C2.67484 37.0769 2.68162 37.6968 2.7725 38.299C2.86202 38.9026 3.037 39.4899 3.28793 40.0419C3.53886 40.5953 3.86846 41.1121 4.26317 41.5787C4.66059 42.0467 5.12447 42.4577 5.6521 42.7981C5.9166 42.9704 6.19194 43.1209 6.47543 43.2539C6.75891 43.3854 7.05053 43.4953 7.34894 43.5821C7.64599 43.6676 7.94982 43.7381 8.25907 43.7815C8.56561 43.8235 8.87894 43.8493 9.19226 43.8493C9.74838 43.8493 10.2923 43.7788 10.8159 43.6458C11.3394 43.5116 11.8413 43.3135 12.3119 43.0585C12.784 42.8035 13.2207 42.4875 13.6181 42.1226C14.0142 41.7551 14.3682 41.3373 14.6707 40.8707L15.593 39.4519C15.6758 39.2959 15.7626 39.1386 15.8562 38.9772C15.9484 38.8212 16.0474 38.6598 16.1505 38.5011C16.2536 38.341 16.3621 38.1837 16.4733 38.025C16.5859 37.8663 16.7026 37.713 16.8233 37.5557C17.4865 36.7052 18.1702 35.9674 18.8836 35.338C19.5957 34.71 20.3377 34.1932 21.1162 33.7822C21.8934 33.3712 22.7073 33.0674 23.5631 32.864C24.419 32.6605 25.3183 32.5601 26.2678 32.5601C26.6259 32.5601 26.9853 32.575 27.342 32.6062C27.7015 32.6361 28.0582 32.6836 28.4149 32.7432C28.7703 32.8043 29.1243 32.8816 29.477 32.9738C29.8296 33.0661 30.1796 33.1719 30.5282 33.2939C30.9107 33.4282 31.2837 33.5788 31.6513 33.7456C32.0175 33.9138 32.3728 34.0983 32.7187 34.2977C33.066 34.4984 33.4037 34.7181 33.7306 34.9487C34.0575 35.1834 34.3735 35.4289 34.6801 35.6961C34.8903 35.8751 35.0965 36.065 35.2959 36.2603C35.4952 36.4597 35.6892 36.6632 35.8764 36.8761C36.0636 37.0864 36.244 37.3048 36.4189 37.5313C36.5939 37.7551 36.7607 37.987 36.9222 38.2244L37.0252 38.356L38.657 40.868C38.9594 41.3319 39.3135 41.7496 39.7082 42.1145C40.1042 42.4794 40.541 42.7913 41.0117 43.0477C41.481 43.3027 41.9828 43.4994 42.5064 43.6323C43.0299 43.7652 43.5725 43.833 44.1286 43.833C44.4433 43.833 44.7539 43.8127 45.0618 43.7666C45.3711 43.7245 45.6749 43.6581 45.9719 43.5712C46.2703 43.4844 46.5633 43.3746 46.8482 43.2457C47.1289 43.1209 47.4056 42.9717 47.6715 42.7995Z" fill="url(#paint4_linear_2_1156)"/>
<path d="M66.3814 35.7015C66.3814 36.3566 66.2769 36.9534 66.0667 37.4892C65.8578 38.0263 65.5608 38.4875 65.1783 38.8727C64.7958 39.2566 64.3387 39.5563 63.8056 39.7679C63.2725 39.9782 62.6798 40.084 62.0287 40.084H58.7327V31.319H62.0287C62.6798 31.319 63.2725 31.4248 63.8056 31.6364C64.3387 31.848 64.7958 32.1451 65.1783 32.5289C65.5608 32.9141 65.8565 33.3767 66.0667 33.9138C66.2769 34.4563 66.3814 35.0504 66.3814 35.7015ZM65.0508 35.7015C65.0508 35.182 64.9789 34.7141 64.8365 34.3017C64.694 33.8894 64.4919 33.5381 64.2288 33.2519C63.967 32.9657 63.6496 32.7459 63.2766 32.5967C62.9036 32.4475 62.4872 32.3702 62.0287 32.3702H60.0389V39.0355H62.0287C62.4886 39.0355 62.905 38.9609 63.2766 38.8103C63.6483 38.6598 63.9657 38.4414 64.2288 38.1538C64.4919 37.8676 64.694 37.5177 64.8365 37.1081C64.9789 36.6984 65.0508 36.2264 65.0508 35.7015Z" fill="white" stroke="white" stroke-width="0.339096" stroke-miterlimit="10"/>
<path d="M70.3 40.084H68.9938V31.319H70.3V40.084Z" fill="white" stroke="white" stroke-width="0.339096" stroke-miterlimit="10"/>
<path d="M80.5909 35.8182V39.2362C80.1473 39.5536 79.6753 39.791 79.1748 39.9483C78.6743 40.1043 78.129 40.1816 77.539 40.1816C76.831 40.1816 76.1907 40.0731 75.6197 39.8534C75.0487 39.6337 74.5604 39.3258 74.1575 38.9311C73.7547 38.5363 73.4441 38.0643 73.2257 37.515C73.0087 36.9657 72.8988 36.3607 72.8988 35.7015C72.8988 35.0396 73.0032 34.4319 73.2135 33.8799C73.4224 33.3278 73.7221 32.8558 74.1141 32.4638C74.5061 32.0718 74.9781 31.7653 75.5329 31.5469C76.089 31.3299 76.7116 31.2214 77.4034 31.2214C77.7533 31.2214 78.0775 31.2485 78.3772 31.3014C78.6756 31.3543 78.9537 31.4303 79.2101 31.5266C79.4664 31.6242 79.7024 31.7409 79.9208 31.8792C80.1392 32.0149 80.3413 32.1681 80.5285 32.3404L80.1568 32.9263C80.0998 33.0186 80.0239 33.0783 79.9303 33.104C79.8367 33.1284 79.735 33.1054 79.6251 33.0362C79.5193 32.9738 79.4027 32.9033 79.2738 32.8233C79.1463 32.7405 78.993 32.6673 78.8167 32.5967C78.6404 32.5276 78.4328 32.4679 78.1968 32.4204C77.9608 32.3702 77.6814 32.3458 77.3599 32.3458C76.8798 32.3458 76.4471 32.4245 76.0605 32.5818C75.674 32.7378 75.3444 32.963 75.0717 33.2546C74.7991 33.5489 74.5902 33.9016 74.4437 34.3139C74.2972 34.7263 74.224 35.1902 74.224 35.7015C74.224 36.2386 74.3013 36.7215 74.4559 37.1447C74.6106 37.5706 74.8289 37.93 75.1124 38.2257C75.3945 38.5201 75.7391 38.7452 76.1446 38.8999C76.5488 39.0545 77.0019 39.1318 77.5024 39.1318C77.6977 39.1318 77.8794 39.1209 78.049 39.0992C78.2185 39.0775 78.38 39.045 78.5346 39.0057C78.6892 38.9636 78.8384 38.9134 78.9835 38.8524C79.1287 38.7913 79.2711 38.7249 79.4135 38.6516V36.8151H78.1195C78.0381 36.8151 77.9717 36.7893 77.9215 36.7419C77.87 36.693 77.8455 36.632 77.8455 36.5587V35.8195H80.5909V35.8182Z" fill="white" stroke="white" stroke-width="0.339096" stroke-miterlimit="10"/>
<path d="M84.6261 40.084H83.3199V31.319H84.6261V40.084Z" fill="white" stroke="white" stroke-width="0.339096" stroke-miterlimit="10"/>
<path d="M93.7383 32.4055H90.955V40.084H89.661V32.4055H86.8655V31.319H93.7383V32.4055Z" fill="white" stroke="white" stroke-width="0.339096" stroke-miterlimit="10"/>
<path d="M102.35 40.084H101.349C101.235 40.084 101.141 40.0555 101.068 39.9985C100.995 39.9429 100.942 39.8683 100.909 39.7788L100.135 37.7469H96.2706L95.4948 39.7788C95.4663 39.8575 95.4134 39.9266 95.3361 39.9904C95.2588 40.0528 95.1652 40.084 95.0553 40.084H94.0543L97.5456 31.319H98.8573L102.35 40.084ZM99.781 36.8192L98.4816 33.4187C98.388 33.1868 98.2944 32.8938 98.2008 32.5411C98.156 32.7161 98.1099 32.8775 98.0638 33.0281C98.0163 33.1786 97.9716 33.3129 97.9254 33.4309L96.6314 36.8192H99.781Z" fill="white" stroke="white" stroke-width="0.339096" stroke-miterlimit="10"/>
<path d="M109.437 38.9921V40.0853H104.42V31.3204H105.719V38.9921H109.437Z" fill="white" stroke="white" stroke-width="0.339096" stroke-miterlimit="10"/>
<path d="M124.592 31.319V40.084H123.458V33.8473C123.458 33.7537 123.461 33.6534 123.467 33.5476C123.474 33.4418 123.481 33.3333 123.489 33.2247L120.572 38.577C120.47 38.7764 120.314 38.8754 120.101 38.8754H119.918C119.706 38.8754 119.552 38.7778 119.454 38.577L116.481 33.2058C116.505 33.4336 116.517 33.6466 116.517 33.8473V40.0853H115.375V31.3204H116.34C116.454 31.3204 116.542 31.3312 116.606 31.3543C116.668 31.376 116.729 31.4384 116.786 31.5401L119.716 36.788C119.773 36.8938 119.826 37.0063 119.874 37.1244C119.923 37.2437 119.971 37.3604 120.015 37.4797C120.101 37.2383 120.201 37.0063 120.315 36.7825L123.191 31.5401C123.244 31.4384 123.302 31.376 123.364 31.3543C123.428 31.3299 123.516 31.3204 123.63 31.3204L124.592 31.319Z" fill="#FF7829" stroke="#FF7829" stroke-width="0.339096" stroke-miterlimit="10"/>
<path d="M134.963 40.084H133.962C133.848 40.084 133.756 40.0555 133.681 39.9985C133.608 39.9429 133.555 39.8683 133.522 39.7788L132.749 37.7469H128.883L128.109 39.7788C128.081 39.8575 128.028 39.9266 127.95 39.9904C127.873 40.0528 127.779 40.084 127.67 40.084H126.669L130.161 31.319H131.473L134.963 40.084ZM132.392 36.8192L131.092 33.4187C130.999 33.1868 130.905 32.8938 130.811 32.5411C130.766 32.7161 130.721 32.8775 130.674 33.0281C130.626 33.1786 130.582 33.3129 130.536 33.4309L129.242 36.8192H132.392Z" fill="#FF7829" stroke="#FF7829" stroke-width="0.339096" stroke-miterlimit="10"/>
<path d="M143.606 40.084H142.447C142.214 40.084 142.046 39.9931 141.94 39.81L139.773 36.7703C139.703 36.6686 139.629 36.5967 139.546 36.5547C139.465 36.5113 139.344 36.4896 139.18 36.4896H138.332V40.084H137.031V31.319H139.558C140.124 31.319 140.609 31.3774 141.02 31.4926C141.429 31.6093 141.766 31.7734 142.032 31.9864C142.299 32.2007 142.496 32.4584 142.626 32.7595C142.754 33.0606 142.818 33.3984 142.818 33.7714C142.818 34.0766 142.772 34.3655 142.677 34.6327C142.584 34.9012 142.446 35.1427 142.266 35.3556C142.082 35.5699 141.863 35.753 141.604 35.9077C141.343 36.0623 141.048 36.1803 140.719 36.2617C140.881 36.3594 141.022 36.4963 141.141 36.6713L143.606 40.084ZM139.516 35.5428C139.85 35.5428 140.144 35.5035 140.398 35.4207C140.653 35.3394 140.864 35.2241 141.035 35.0762C141.206 34.9284 141.335 34.7507 141.421 34.5445C141.506 34.3397 141.548 34.1132 141.548 33.865C141.548 33.359 141.383 32.9806 141.05 32.7229C140.719 32.4665 140.222 32.339 139.558 32.339H138.332V35.5415L139.516 35.5428Z" fill="#FF7829" stroke="#FF7829" stroke-width="0.339096" stroke-miterlimit="10"/>
<path d="M147.005 35.1101H147.432C147.585 35.1101 147.711 35.0898 147.806 35.0518C147.901 35.0125 147.988 34.946 148.065 34.8538L150.856 31.612C150.944 31.5022 151.037 31.4248 151.13 31.3828C151.223 31.3407 151.338 31.319 151.478 31.319H152.589L149.34 35.0545C149.258 35.1603 149.179 35.2458 149.099 35.3109C149.019 35.3746 148.938 35.4302 148.852 35.475C149.075 35.5523 149.271 35.7083 149.438 35.9457L152.813 40.084H151.684C151.602 40.084 151.532 40.0772 151.473 40.065C151.414 40.0528 151.364 40.0365 151.322 40.0135C151.279 39.9904 151.239 39.9633 151.205 39.9307C151.172 39.8982 151.139 39.8588 151.111 39.8141L148.223 36.396C148.183 36.3431 148.141 36.2983 148.101 36.2603C148.061 36.2237 148.014 36.1939 147.96 36.1735C147.907 36.1491 147.846 36.1342 147.777 36.1234C147.707 36.1139 147.626 36.1084 147.532 36.1084H147.001V40.0826H145.701V31.3177H147.001V35.1101H147.005Z" fill="#FF7829" stroke="#FF7829" stroke-width="0.339096" stroke-miterlimit="10"/>
<path d="M160.281 39.0287L160.274 40.084H154.842V31.319H160.274V32.3743H156.148V35.1522H159.469V36.1722H156.148V39.0274L160.281 39.0287Z" fill="#FF7829" stroke="#FF7829" stroke-width="0.339096" stroke-miterlimit="10"/>
<path d="M168.839 32.4055H166.054V40.084H164.761V32.4055H161.964V31.319H168.837L168.839 32.4055Z" fill="#FF7829" stroke="#FF7829" stroke-width="0.339096" stroke-miterlimit="10"/>
<path d="M172.384 40.084H171.078V31.319H172.384V40.084Z" fill="#FF7829" stroke="#FF7829" stroke-width="0.339096" stroke-miterlimit="10"/>
<path d="M182.698 31.319V40.084H182.04C181.938 40.084 181.853 40.065 181.786 40.0297C181.719 39.9931 181.651 39.9348 181.583 39.852L176.632 33.4486C176.64 33.5584 176.649 33.6656 176.654 33.7714C176.661 33.8772 176.665 33.9775 176.665 34.0711V40.084H175.523V31.319H176.193C176.307 31.319 176.392 31.3326 176.449 31.3584C176.506 31.3841 176.568 31.4438 176.639 31.5388L181.601 37.9477C181.588 37.8297 181.579 37.7144 181.572 37.6032C181.567 37.4919 181.564 37.3861 181.564 37.2885V31.3204L182.698 31.319Z" fill="#FF7829" stroke="#FF7829" stroke-width="0.339096" stroke-miterlimit="10"/>
<path d="M192.996 35.8182V39.2362C192.554 39.5536 192.08 39.791 191.58 39.9483C191.08 40.1043 190.534 40.1816 189.944 40.1816C189.237 40.1816 188.596 40.0731 188.025 39.8534C187.453 39.6337 186.967 39.3258 186.564 38.9311C186.16 38.5363 185.85 38.0643 185.631 37.515C185.413 36.9657 185.305 36.3607 185.305 35.7015C185.305 35.0396 185.409 34.4319 185.62 33.8799C185.829 33.3278 186.128 32.8558 186.519 32.4638C186.91 32.0718 187.383 31.7653 187.938 31.5469C188.494 31.3299 189.116 31.2214 189.81 31.2214C190.159 31.2214 190.484 31.2485 190.783 31.3014C191.083 31.3543 191.36 31.4303 191.616 31.5266C191.871 31.6242 192.109 31.7409 192.327 31.8792C192.544 32.0149 192.747 32.1681 192.933 32.3404L192.562 32.9263C192.505 33.0186 192.429 33.0783 192.335 33.104C192.243 33.1284 192.14 33.1054 192.03 33.0362C191.924 32.9738 191.807 32.9033 191.679 32.8233C191.55 32.7405 191.398 32.6673 191.222 32.5967C191.044 32.5276 190.838 32.4679 190.602 32.4204C190.366 32.3702 190.086 32.3458 189.765 32.3458C189.285 32.3458 188.852 32.4245 188.465 32.5818C188.079 32.7378 187.749 32.963 187.477 33.2546C187.204 33.5489 186.995 33.9016 186.849 34.3139C186.702 34.7263 186.629 35.1902 186.629 35.7015C186.629 36.2386 186.706 36.7215 186.861 37.1447C187.015 37.5706 187.234 37.93 187.516 38.2257C187.799 38.5201 188.144 38.7452 188.549 38.8999C188.954 39.0545 189.405 39.1318 189.906 39.1318C190.103 39.1318 190.284 39.1209 190.452 39.0992C190.621 39.0775 190.782 39.045 190.938 39.0057C191.091 38.9636 191.242 38.9134 191.386 38.8524C191.529 38.7913 191.675 38.7249 191.816 38.6516V36.8151H190.522C190.439 36.8151 190.374 36.7893 190.324 36.7419C190.273 36.693 190.246 36.632 190.246 36.5587V35.8195H192.996V35.8182Z" fill="#FF7829" stroke="#FF7829" stroke-width="0.339096" stroke-miterlimit="10"/>
<path d="M206.602 40.084H205.601C205.487 40.084 205.393 40.0555 205.32 39.9985C205.245 39.9429 205.192 39.8683 205.161 39.7788L204.387 37.7469H200.522L199.746 39.7788C199.718 39.8575 199.665 39.9266 199.589 39.9904C199.51 40.0528 199.418 40.084 199.308 40.084H198.307L201.799 31.319H203.112L206.602 40.084ZM204.033 36.8192L202.732 33.4187C202.64 33.1868 202.543 32.8938 202.451 32.5411C202.406 32.7161 202.361 32.8775 202.313 33.0281C202.267 33.1786 202.22 33.3129 202.174 33.4309L200.882 36.8192H204.033Z" fill="#FF7829" stroke="#FF7829" stroke-width="0.339096" stroke-miterlimit="10"/>
<path d="M215.585 35.8182V39.2362C215.143 39.5536 214.669 39.791 214.169 39.9483C213.67 40.1043 213.123 40.1816 212.533 40.1816C211.826 40.1816 211.185 40.0731 210.614 39.8534C210.043 39.6337 209.556 39.3258 209.153 38.9311C208.749 38.5363 208.439 38.0643 208.22 37.515C208.003 36.9657 207.894 36.3607 207.894 35.7015C207.894 35.0396 207.999 34.4319 208.209 33.8799C208.418 33.3278 208.717 32.8558 209.108 32.4638C209.499 32.0718 209.972 31.7653 210.527 31.5469C211.083 31.3299 211.706 31.2214 212.399 31.2214C212.749 31.2214 213.073 31.2485 213.373 31.3014C213.672 31.3543 213.949 31.4303 214.205 31.5266C214.46 31.6242 214.698 31.7409 214.916 31.8792C215.133 32.0149 215.337 32.1681 215.522 32.3404L215.151 32.9263C215.094 33.0186 215.018 33.0783 214.924 33.104C214.832 33.1284 214.729 33.1054 214.619 33.0362C214.513 32.9738 214.397 32.9033 214.268 32.8233C214.139 32.7405 213.987 32.6673 213.811 32.5967C213.633 32.5276 213.427 32.4679 213.191 32.4204C212.955 32.3702 212.675 32.3458 212.354 32.3458C211.874 32.3458 211.441 32.4245 211.055 32.5818C210.668 32.7378 210.338 32.963 210.066 33.2546C209.793 33.5489 209.584 33.9016 209.438 34.3139C209.291 34.7263 209.218 35.1902 209.218 35.7015C209.218 36.2386 209.295 36.7215 209.45 37.1447C209.605 37.5706 209.823 37.93 210.105 38.2257C210.389 38.5201 210.733 38.7452 211.139 38.8999C211.543 39.0545 211.995 39.1318 212.495 39.1318C212.692 39.1318 212.873 39.1209 213.042 39.0992C213.21 39.0775 213.371 39.045 213.527 39.0057C213.68 38.9636 213.831 38.9134 213.975 38.8524C214.119 38.7913 214.264 38.7249 214.405 38.6516V36.8151H213.111C213.028 36.8151 212.963 36.7893 212.913 36.7419C212.863 36.693 212.835 36.632 212.835 36.5587V35.8195H215.585V35.8182Z" fill="#FF7829" stroke="#FF7829" stroke-width="0.339096" stroke-miterlimit="10"/>
<path d="M223.753 39.0287L223.746 40.084H218.314V31.319H223.746V32.3743H219.62V35.1522H222.941V36.1722H219.62V39.0274L223.753 39.0287Z" fill="#FF7829" stroke="#FF7829" stroke-width="0.339096" stroke-miterlimit="10"/>
<path d="M233.512 31.319V40.084H232.853C232.753 40.084 232.667 40.065 232.599 40.0297C232.532 39.9931 232.464 39.9348 232.396 39.852L227.446 33.4486C227.455 33.5584 227.463 33.6656 227.468 33.7714C227.474 33.8772 227.478 33.9775 227.478 34.0711V40.084H226.336V31.319H227.007C227.121 31.319 227.205 31.3326 227.263 31.3584C227.319 31.3855 227.383 31.4438 227.452 31.5388L232.414 37.9477C232.403 37.8297 232.392 37.7144 232.386 37.6032C232.381 37.4919 232.377 37.3861 232.377 37.2885V31.3204L233.512 31.319Z" fill="#FF7829" stroke="#FF7829" stroke-width="0.339096" stroke-miterlimit="10"/>
<path d="M242.778 38.2054C242.851 38.2054 242.915 38.2339 242.968 38.2908L243.48 38.8524C243.121 39.2769 242.685 39.6038 242.17 39.8358C241.656 40.0677 241.036 40.183 240.313 40.183C239.677 40.183 239.102 40.0745 238.589 39.8548C238.074 39.635 237.634 39.3271 237.269 38.9324C236.906 38.5377 236.622 38.0657 236.424 37.5163C236.226 36.967 236.125 36.3621 236.125 35.7029C236.125 35.045 236.23 34.4387 236.439 33.8907C236.648 33.3414 236.942 32.8694 237.321 32.4747C237.698 32.08 238.151 31.7721 238.677 31.5523C239.205 31.3326 239.787 31.2227 240.427 31.2227C241.05 31.2227 241.602 31.3245 242.087 31.5279C242.571 31.7314 242.993 32.0027 243.351 32.3417L242.925 32.9453C242.897 32.9901 242.86 33.0267 242.818 33.0538C242.775 33.0823 242.719 33.0973 242.65 33.0973C242.573 33.0973 242.483 33.0593 242.379 32.982C242.276 32.9033 242.139 32.8178 241.969 32.7229C241.801 32.6279 241.594 32.5398 241.344 32.4638C241.094 32.3879 240.786 32.3472 240.416 32.3472C239.981 32.3472 239.582 32.4245 239.218 32.5764C238.856 32.7283 238.546 32.9481 238.283 33.2342C238.021 33.5218 237.817 33.8745 237.672 34.2909C237.53 34.7073 237.457 35.1779 237.457 35.7029C237.457 36.2373 237.533 36.7107 237.683 37.1257C237.832 37.5421 238.041 37.8921 238.306 38.1823C238.569 38.4712 238.881 38.691 239.239 38.8402C239.597 38.9894 239.983 39.0667 240.399 39.0667C240.651 39.0667 240.879 39.0504 241.079 39.0206C241.28 38.9907 241.466 38.9446 241.634 38.8822C241.802 38.8212 241.962 38.7425 242.113 38.6476C242.264 38.5526 242.413 38.4373 242.559 38.3031C242.592 38.2746 242.627 38.2502 242.664 38.2312C242.699 38.2135 242.737 38.2054 242.778 38.2054Z" fill="#FF7829" stroke="#FF7829" stroke-width="0.339096" stroke-miterlimit="10"/>
<path d="M249.18 36.6184V40.0853H247.887V36.6184L244.677 31.3204H245.819C245.933 31.3204 246.022 31.3475 246.093 31.4031C246.162 31.4587 246.219 31.5306 246.264 31.6202L248.168 34.8972C248.245 35.0477 248.314 35.1915 248.377 35.3244C248.441 35.4587 248.496 35.5903 248.546 35.7205C248.59 35.5903 248.641 35.4587 248.701 35.3244C248.761 35.1902 248.827 35.0477 248.904 34.8972L250.802 31.6202C250.843 31.5455 250.898 31.4791 250.97 31.4167C251.041 31.3529 251.132 31.3217 251.241 31.3217H252.389L249.18 36.6184Z" fill="#FF7829" stroke="#FF7829" stroke-width="0.339096" stroke-miterlimit="10"/>
<defs>
<linearGradient id="paint0_linear_2_1156" x1="103.333" y1="24.7404" x2="60.1869" y2="14.262" gradientUnits="userSpaceOnUse">
<stop stop-color="#F4831F"/>
<stop offset="0.3925" stop-color="#FBB040"/>
<stop offset="1" stop-color="#ED4F23"/>
</linearGradient>
<linearGradient id="paint1_linear_2_1156" x1="105.15" y1="17.2664" x2="62.0009" y2="6.78735" gradientUnits="userSpaceOnUse">
<stop stop-color="#F4831F"/>
<stop offset="0.3925" stop-color="#FBB040"/>
<stop offset="1" stop-color="#ED4F23"/>
</linearGradient>
<linearGradient id="paint2_linear_2_1156" x1="104.284" y1="20.8435" x2="61.1338" y2="10.3643" gradientUnits="userSpaceOnUse">
<stop stop-color="#F4831F"/>
<stop offset="0.3925" stop-color="#FBB040"/>
<stop offset="1" stop-color="#ED4F23"/>
</linearGradient>
<radialGradient id="paint3_radial_2_1156" cx="0" cy="0" r="1" gradientUnits="userSpaceOnUse" gradientTransform="translate(1.19685 4.46551) scale(49.3793 49.3793)">
<stop stop-color="#F4831F"/>
<stop offset="0.3925" stop-color="#FBB040"/>
<stop offset="1" stop-color="#ED4F23"/>
</radialGradient>
<linearGradient id="paint4_linear_2_1156" x1="2.34131" y1="23.7204" x2="51.371" y2="23.7204" gradientUnits="userSpaceOnUse">
<stop stop-color="#E5AB1D"/>
<stop offset="0.3656" stop-color="#ED4F23"/>
<stop offset="0.6452" stop-color="#E4B21D"/>
<stop offset="1" stop-color="#ED4F23"/>
</linearGradient>
</defs>
</svg>
