<svg width="255" height="48" viewBox="0 0 255 48" fill="none" xmlns="http://www.w3.org/2000/svg">
<path d="M63.5722 25.2967C61.3776 25.2967 59.8259 24.925 58.913 24.1885C58.0002 23.4479 57.5444 22.295 57.5444 20.723V18.6775C57.5444 17.0851 58.011 15.9458 58.9483 15.2662C59.8828 14.584 61.402 14.2422 63.5044 14.2422H69.9499C70.8723 14.2422 71.5776 14.3195 72.0618 14.4673C72.5474 14.6165 72.9624 14.7847 73.3083 14.9678V12.7868C73.3083 11.9092 73.0425 11.3341 72.5121 11.056C71.9791 10.778 71.0798 10.6396 69.8102 10.6396H58.9998V6.58403H70.3989C71.9235 6.58403 73.1686 6.74137 74.1384 7.05334C75.1082 7.36531 75.8651 7.78714 76.409 8.3202C76.9502 8.85055 77.3273 9.47313 77.5362 10.1907C77.7437 10.9055 77.8468 11.6691 77.8468 12.4775V25.298C77.1781 25.298 76.5311 25.0824 75.9058 24.6551C75.2832 24.2292 74.8804 23.4601 74.6932 22.3533C74.4178 23.2051 73.8861 23.9105 73.1008 24.4679C72.3141 25.0213 71.229 25.298 69.8428 25.298H63.5722V25.2967ZM73.3097 17.6399C72.9163 17.4771 72.4646 17.3496 71.9587 17.2588C71.4487 17.1665 70.7692 17.1204 69.9146 17.1204H64.2667C63.5274 17.1204 62.9957 17.2628 62.6716 17.5517C62.3474 17.842 62.1873 18.39 62.1873 19.1998C62.1873 19.9837 62.3487 20.5276 62.6716 20.8274C62.9957 21.1272 63.5152 21.275 64.23 21.275H69.878C70.7108 21.275 71.4541 21.1367 72.112 20.86C72.7698 20.5833 73.1673 20.0516 73.307 19.2662V17.6399H73.3097Z" fill="url(#paint0_linear_1_449)"/>
<path d="M102.293 21.5897V25.6412H99.6101C97.2527 25.6412 95.568 24.8844 94.5521 23.372C93.5348 21.8569 93.0275 19.6134 93.0275 16.6321V10.5772H91.5369V6.58403H93.0275H97.6691H102.292V10.5759H97.6691V16.6321C97.6691 18.2964 97.9227 19.5361 98.4314 20.3567C98.94 21.1774 99.7837 21.5883 100.961 21.5883L102.293 21.5897Z" fill="url(#paint1_linear_1_449)"/>
<path d="M202.275 21.5897V25.6399H199.59C197.233 25.6399 195.547 24.8844 194.532 23.372C193.514 21.8569 193.008 19.6134 193.008 16.6321V10.5772H191.519V6.58403H193.008H197.651H202.275V10.5759H197.651V16.6321C197.651 18.2964 197.904 19.5361 198.414 20.3567C198.922 21.1774 199.765 21.5883 200.943 21.5883L202.275 21.5897Z" fill="white"/>
<path d="M108.85 6.58403H104.207V25.6412H108.85V6.58403Z" fill="white"/>
<path d="M208.757 6.58403H204.114V25.6412H208.757V6.58403Z" fill="white"/>
<path d="M148.194 6.58403H143.553V25.6412H148.194V6.58403Z" fill="white"/>
<path d="M150.295 25.6426V21.5951L161.627 10.9611H150.295V6.58403H168.209V10.9611L156.982 21.4554L167.671 21.4337V25.6209L150.295 25.6426Z" fill="white"/>
<path d="M175.387 25.9206C173.191 25.9206 171.637 25.553 170.727 24.8125C169.812 24.0732 169.357 22.9176 169.357 21.3483V19.3001C169.357 17.7077 169.823 16.5697 170.761 15.8875C171.695 15.2079 173.214 14.8647 175.315 14.8647H181.762C182.683 14.8647 183.388 14.9421 183.875 15.0926C184.357 15.2405 184.773 15.4087 185.121 15.5931V13.1611C185.121 12.2849 184.856 11.7071 184.324 11.429C183.794 11.1537 182.891 11.014 181.622 11.014H170.188V6.58403H182.21C183.736 6.58403 184.982 6.74137 185.952 7.05334C186.922 7.36531 187.677 7.78714 188.221 8.3202C188.764 8.8519 189.142 9.47584 189.348 10.1907C189.557 10.9055 189.659 11.6691 189.659 12.4775V25.922C188.99 25.922 188.345 25.709 187.721 25.2804C187.095 24.8532 186.693 24.0854 186.507 22.9759C186.23 23.8291 185.698 24.5358 184.913 25.0905C184.128 25.6453 183.043 25.922 181.656 25.922L175.387 25.9206ZM185.121 18.2625C184.727 18.1024 184.277 17.9736 183.77 17.8841C183.262 17.7918 182.58 17.743 181.727 17.743H176.08C175.338 17.743 174.808 17.8868 174.484 18.177C174.16 18.4659 173.998 19.0139 173.998 19.821C173.998 20.6077 174.16 21.1489 174.484 21.4513C174.808 21.7511 175.327 21.899 176.042 21.899H181.689C182.522 21.899 183.268 21.7606 183.923 21.4825C184.581 21.2086 184.981 20.6741 185.119 19.8901V18.2625H185.121Z" fill="white"/>
<path d="M84.8593 13.7295V13.5735L84.8823 13.5518C85.1183 11.8685 86.5615 10.5732 88.3085 10.5732C88.4116 10.5732 88.5147 10.5799 88.6151 10.5881H89.7083V6.60573C89.7083 6.59895 89.4764 6.58403 89.3516 6.58403C88.3126 6.58403 87.4459 6.79834 86.6388 7.22696C85.8277 7.65422 84.8606 8.34326 84.8606 9.29001V6.6722H80.1987V25.6914H84.8606V14.3466C84.8525 14.2449 84.8443 14.1432 84.8443 14.036C84.843 13.9329 84.8498 13.8298 84.8593 13.7295Z" fill="url(#paint2_linear_1_449)"/>
<path d="M141.077 10.8037C140.879 9.85834 140.531 9.07164 140.027 8.44092C139.527 7.8102 138.843 7.34225 137.981 7.03977C137.117 6.7373 136.008 6.58403 134.655 6.58403H133.01C131.541 6.58403 130.374 6.8648 129.51 7.42499C128.646 7.98517 128.04 8.89666 127.691 10.1554C127.294 8.82749 126.588 7.89837 125.572 7.37209C124.558 6.84581 123.151 6.58403 121.355 6.58403H119.887C118.626 6.58403 117.634 6.83632 116.911 7.33954C116.189 7.84004 115.627 8.49924 115.231 9.31579V6.58403H110.856V25.4879H114.495H115.325V12.6538C115.325 11.547 116.223 10.6491 117.331 10.6491H117.729H121.132C121.981 10.6572 122.595 10.8254 122.991 11.1483C123.031 11.1835 123.074 11.2147 123.112 11.2541C123.48 11.6271 123.668 12.1913 123.668 12.955V25.4866H123.686H125.077H128.185V12.955C128.185 12.1628 128.383 11.5769 128.779 11.2052C129.178 10.8336 129.867 10.645 130.845 10.645H134.24C134.8 10.645 135.249 10.7318 135.588 10.9068C135.926 11.0818 136.182 11.3287 136.358 11.6433C136.533 11.958 136.65 12.3378 136.707 12.78C136.765 13.2249 136.795 13.7023 136.795 14.2164V25.4879H141.38V14.1459C141.374 12.8627 141.277 11.7491 141.077 10.8037Z" fill="white"/>
<path d="M246.953 25.568V13.4826C246.953 12.4924 246.764 11.7532 246.387 11.2676C246.009 10.7848 245.324 10.542 244.331 10.542H238.162C237.477 10.542 236.957 10.6898 236.605 10.9841C236.251 11.2812 235.978 11.7478 235.79 12.3853V25.568H231.073V6.43077H235.612V9.19508C236.13 8.17915 236.734 7.46434 237.419 7.05064C238.104 6.6383 239.014 6.43077 240.148 6.43077H244.331C245.722 6.43077 246.894 6.58404 247.838 6.89194C248.784 7.19984 249.541 7.67051 250.106 8.30936C250.675 8.94822 251.081 9.74577 251.33 10.702C251.578 11.6583 251.701 12.7881 251.701 14.0862V25.5693L246.953 25.568Z" fill="white"/>
<path d="M224.702 6.40906H215.24C212.788 6.40906 210.802 8.39616 210.802 10.8458L210.831 21.1909C210.831 23.6419 212.818 25.6276 215.269 25.6276H224.731C227.182 25.6276 229.168 23.6405 229.168 21.1909L229.139 10.8458C229.141 8.39616 227.153 6.40906 224.702 6.40906ZM225.069 19.0031C225.069 20.3974 223.939 21.5273 222.546 21.5273H217.461C216.065 21.5273 214.935 20.3974 214.935 19.0031L214.907 13.0363C214.907 11.642 216.037 10.5108 217.432 10.5108H222.517C223.91 10.5108 225.04 11.642 225.04 13.0363L225.069 19.0031Z" fill="white"/>
<path d="M30.0548 28.5832L30.0534 28.5791C30.0534 28.5764 30.0507 28.5751 30.0507 28.5751C30.0507 28.5724 30.048 28.5696 30.048 28.5696C30.0467 28.5669 30.0439 28.5629 30.0439 28.5629C29.9449 28.3974 29.8378 28.2251 29.7293 28.0461C29.7143 28.023 29.7021 28.004 29.6886 27.981C29.6818 27.9688 29.6736 27.9566 29.6669 27.9484C29.5461 27.7504 29.4186 27.5469 29.2884 27.3394C29.1514 27.1224 29.0104 26.9027 28.8666 26.6734C28.7689 26.5188 28.6672 26.3587 28.5668 26.2C28.518 26.1227 28.4705 26.0481 28.4231 25.9695C28.4231 25.9695 28.4217 25.9695 28.4217 25.9668C28.419 25.9654 28.4176 25.9627 28.4163 25.9586C28.4163 25.9586 28.4122 25.9545 28.4109 25.9518C28.4109 25.9491 28.4068 25.945 28.4041 25.941C27.8222 25.0268 27.1874 24.0258 26.5445 22.9759C25.9015 21.9288 25.2518 20.8328 24.6442 19.7274C24.0352 18.6192 23.4655 17.5002 22.984 16.4056C22.5024 15.311 22.1077 14.2408 21.846 13.2303L22.5255 16.2388C22.0955 15.2323 21.7361 14.2408 21.4919 13.3036L22.6394 18.059C22.8551 18.8878 23.1779 19.7654 23.5713 20.6579C23.9633 21.5531 24.4244 22.4619 24.9195 23.3625C25.4146 24.2618 25.9395 25.1475 26.4604 25.9993C26.9812 26.8484 27.4953 27.6568 27.9673 28.3974C28.0419 28.514 28.1138 28.6334 28.187 28.7487C28.2603 28.8613 28.3322 28.9779 28.4027 29.0878C28.4732 29.2017 28.5438 29.3116 28.613 29.4201C28.6808 29.5273 28.7472 29.6358 28.8123 29.7402L28.8856 29.3143C28.8978 29.336 28.9114 29.355 28.9236 29.374C29.0334 29.5503 29.1406 29.7212 29.2423 29.8853C29.2667 29.9233 29.2898 29.9613 29.3142 30.0033C29.3929 30.1295 29.4715 30.2583 29.5421 30.3777L30.0548 31.2336L30.6923 29.6439L30.0548 28.5832Z" fill="#7C221C"/>
<path d="M43.734 41.8351C43.6173 41.9097 43.4993 41.9775 43.3786 42.0413C43.3366 42.063 43.2945 42.0806 43.2538 42.1036C43.1738 42.143 43.0951 42.1837 43.0124 42.2203C42.9608 42.242 42.9107 42.261 42.8578 42.2827C42.7832 42.3112 42.7072 42.3424 42.6299 42.3695C42.5783 42.3844 42.5268 42.4021 42.4766 42.4183C42.3939 42.4455 42.3125 42.4685 42.2311 42.4902C42.1674 42.5078 42.1036 42.5255 42.0385 42.5377C42.0141 42.5445 41.991 42.5499 41.968 42.554C41.8567 42.5784 41.7442 42.5987 41.6316 42.615C41.6248 42.615 41.6167 42.6177 41.6085 42.6177C41.5054 42.634 41.401 42.7303 41.2979 42.7371C41.2694 42.7398 41.2409 42.8293 41.2125 42.8293H41.1948L41.1392 42.7235C41.1175 42.7235 41.0958 42.6598 41.0728 42.6611C41.051 42.6611 41.0293 42.7683 41.0063 42.7683C40.9846 42.771 40.9615 42.8293 40.9412 42.8293H40.8747C40.8218 42.8293 40.7689 42.7493 40.7174 42.7466C40.6699 42.7466 40.6224 42.7289 40.5763 42.7439C40.5099 42.7384 40.4447 42.695 40.3783 42.6882C40.3715 42.6882 40.3647 42.6652 40.3552 42.6638C40.2399 42.5811 40.1246 42.4875 40.0148 42.3966C39.753 42.185 39.5075 41.9477 39.2796 41.694C39.0517 41.4404 38.8401 41.1623 38.6516 40.872L37.0199 38.3587L36.9439 38.2163C36.9304 38.1973 36.9154 38.1783 36.9032 38.1579C36.8897 38.1389 36.8747 38.124 36.8625 38.1023C36.849 38.0833 36.8341 38.067 36.8218 38.0481C36.8083 38.0277 36.7934 38.0101 36.7798 37.9924C36.7188 37.9084 36.6523 37.8297 36.5885 37.7456C36.5329 37.6737 36.48 37.5991 36.4244 37.5272C36.4014 37.5001 36.3783 37.477 36.3593 37.4499C36.3363 37.4228 36.3159 37.3929 36.2942 37.3672C36.2155 37.2709 36.1314 37.1786 36.0501 37.085C35.9904 37.0131 35.9348 36.9426 35.8737 36.8761C35.8588 36.8585 35.8425 36.8463 35.829 36.8287C35.8127 36.811 35.7991 36.7907 35.7829 36.7758C35.6811 36.6632 35.5726 36.5574 35.4668 36.4502C35.4085 36.3906 35.3515 36.3255 35.2918 36.2631C35.2837 36.2576 35.2756 36.2509 35.2674 36.2441C35.2593 36.2332 35.2512 36.2264 35.243 36.2169C35.0599 36.0393 34.8022 35.8684 34.6109 35.7029C34.6096 35.7002 34.5336 35.7002 34.5336 35.6974V35.6025H34.6747C34.5214 35.6025 34.3654 35.3895 34.2081 35.2661C34.0494 35.1386 33.888 35.0437 33.7252 34.9284C33.3983 34.6951 33.062 34.4889 32.7147 34.2868C32.5275 34.1797 32.3363 34.0834 32.145 33.983C31.9796 33.9002 31.8141 33.8216 31.6459 33.7443C31.4641 33.6602 31.281 33.5842 31.0938 33.5069C31.0938 33.5055 31.0925 33.5069 31.0925 33.5055C30.9935 33.4676 30.8931 33.4364 30.7941 33.3984C30.7046 33.3658 30.615 33.3007 30.5255 33.3007C30.5025 33.3007 30.478 33.3685 30.455 33.3618C30.4591 33.3523 30.4523 33.3455 30.4414 33.3373C30.4401 33.3428 30.436 33.3441 30.4333 33.3495C30.3994 33.3373 30.3655 33.3224 30.3316 33.3089C30.2963 33.3034 30.2719 33.3007 30.28 33.3007H30.3153C30.1525 33.237 29.9884 33.1624 29.8243 33.1149C29.7076 33.0796 29.591 33.0254 29.4743 32.9942C29.3265 32.9548 29.1786 32.9114 29.0294 32.8775C28.8233 32.8328 28.6171 32.7853 28.4109 32.7487C28.0542 32.689 27.6988 32.6402 27.3394 32.6076C26.9799 32.5751 26.6218 32.5615 26.2638 32.5615C26.1783 32.5615 26.0942 32.5588 26.0088 32.5615C25.9247 32.5628 25.8406 32.9277 25.7565 32.9304C25.6941 32.9331 25.8948 31.9335 25.8324 31.9335L25.5734 32.2075C25.5557 32.2075 25.5245 32.9399 25.5096 32.9399C25.4255 32.9481 25.3428 32.7704 25.26 32.7772C25.1447 32.7894 25.0295 32.708 24.9142 32.7229C24.8979 32.7229 24.8816 32.6809 24.8653 32.6822C24.8504 32.6849 24.8368 32.6605 24.8233 32.6619C24.6782 32.6781 24.5344 32.6903 24.3933 32.7107C24.3485 32.7175 24.3079 32.7188 24.2645 32.7243C24.2251 32.7338 24.1871 32.7378 24.1478 32.746C24.0895 32.7555 24.0284 32.7636 23.9701 32.7744C23.8372 32.8002 23.7043 33.0471 23.5741 33.0783C23.57 33.0796 23.5659 33.2994 23.5618 33.2994H23.5551C23.5496 33.2994 23.5442 33.0864 23.5401 33.0878C23.296 33.1461 23.0559 33.104 22.8172 33.18C22.7412 33.2031 22.6653 33.1759 22.5893 33.2031C22.4171 33.2614 22.2462 33.2966 22.0766 33.3645C22.0318 33.3835 21.9857 33.3835 21.941 33.4024C21.9084 33.416 21.8786 33.4269 21.846 33.4391C21.6561 33.5218 21.4676 33.6073 21.2818 33.7009C21.237 33.7253 21.1909 33.7429 21.1461 33.7646C21.1353 33.77 21.1258 33.7755 21.1163 33.7809C20.8993 33.8948 20.6863 34.0182 20.4747 34.1498C20.4571 34.1593 20.4395 34.1702 20.4218 34.1783C20.3771 34.2068 20.3323 34.2407 20.2875 34.2705C20.1248 34.375 19.9647 34.4862 19.806 34.6001C19.7341 34.653 19.6636 34.7046 19.5917 34.7588C19.4235 34.8863 19.258 35.0193 19.0926 35.159C19.0587 35.1874 19.022 35.2132 18.9881 35.2444C18.9759 35.2553 18.9637 35.2648 18.9515 35.2756C18.9284 35.296 18.904 35.3149 18.8823 35.3339C18.6924 35.5008 18.508 35.6757 18.3221 35.8575C18.2842 35.8941 18.2462 35.9362 18.2082 35.9755C18.0373 36.1451 17.8705 36.3214 17.705 36.5045C17.6792 36.533 17.6521 36.5574 17.6277 36.5859C17.6182 36.5967 17.6087 36.6089 17.5992 36.6198C17.5897 36.6279 17.5802 36.6401 17.5707 36.6496C17.5612 36.6605 17.5517 36.6727 17.5422 36.6822C17.5327 36.693 17.5232 36.7039 17.5137 36.7147C17.4554 36.7785 17.3971 36.849 17.3388 36.9141C17.3347 36.9209 17.3306 36.9263 17.3266 36.9304C17.3238 36.9331 17.3225 36.9358 17.3198 36.9399C17.2682 37.0023 17.218 37.062 17.1665 37.1217C17.1095 37.1949 17.0512 37.2627 16.9956 37.3346C16.9386 37.4065 16.8817 37.477 16.8233 37.5503C16.784 37.6018 16.746 37.6493 16.708 37.7008C16.6701 37.751 16.6307 37.8026 16.5955 37.8527C16.5683 37.888 16.5426 37.9246 16.5154 37.9613C16.5141 37.9667 16.5114 37.968 16.5087 37.9721C16.5059 37.9762 16.5032 37.9802 16.5019 37.983C16.4978 37.9897 16.491 37.9979 16.4842 38.006C16.449 38.0548 16.411 38.1077 16.3757 38.1593C16.3378 38.2122 16.3025 38.2678 16.2659 38.3207C16.2482 38.3478 16.2292 38.3709 16.2116 38.3994C16.2048 38.4102 16.198 38.4238 16.1899 38.4333C16.1804 38.4482 16.1696 38.4618 16.1601 38.4794C16.0909 38.5865 16.0217 38.6923 15.9566 38.8009C15.9525 38.809 15.9471 38.8185 15.943 38.8253C15.943 38.8266 15.9417 38.8266 15.9403 38.828C15.939 38.8307 15.9349 38.8375 15.9322 38.8443C15.8752 38.9378 15.821 39.0314 15.7681 39.1237C15.7532 39.1522 15.7382 39.182 15.722 39.2091C15.7125 39.2254 15.703 39.239 15.6935 39.258C15.6853 39.2729 15.6772 39.2864 15.6677 39.3027C15.6582 39.319 15.6501 39.3353 15.6419 39.3502C15.6351 39.3651 15.6257 39.3827 15.6189 39.3977C15.6107 39.4139 15.6012 39.4261 15.5931 39.4424L14.6708 40.8612C14.4727 41.1677 14.2476 41.4553 14.0061 41.7211C13.7647 41.987 13.5016 42.2298 13.2221 42.4495C13.1489 42.5078 13.0716 42.5594 12.9956 42.6123C12.9753 42.6218 12.9536 42.7398 12.9319 42.7411C12.9102 42.7425 12.8858 42.8307 12.8641 42.8307H12.7311C12.6796 42.8307 12.6294 42.7534 12.5779 42.7534C12.529 42.7506 12.4788 42.7547 12.43 42.7601C12.411 42.7574 12.392 42.714 12.3744 42.7127C12.3608 42.7099 12.3473 42.6869 12.3351 42.6869C12.2266 42.6788 12.1208 42.6557 12.0136 42.6408C11.996 42.6367 11.977 42.6299 11.9593 42.6272C11.8536 42.6109 11.7491 42.5906 11.6447 42.5675C11.6189 42.5621 11.5931 42.554 11.5687 42.5499C11.4683 42.5268 11.3666 42.4984 11.2662 42.4685C11.2418 42.4604 11.2174 42.4549 11.193 42.4468C11.1089 42.4183 11.0248 42.3898 10.9421 42.3614C10.9163 42.3505 10.8892 42.341 10.8634 42.3315C10.7644 42.2963 10.6681 42.2542 10.5704 42.2094C10.5474 42.1999 10.5229 42.5879 10.4999 42.5784C10.4009 42.5309 10.3032 42.828 10.2069 42.828C10.0957 42.828 9.98717 42.3003 9.87866 42.2325C9.66977 42.0969 9.4731 41.7469 9.28863 41.5828C9.2832 41.5774 9.27642 41.4729 9.271 41.4675C9.10009 41.3169 8.9414 41.1013 8.79355 40.9331C8.74608 40.8748 8.6986 40.7934 8.65249 40.7351C8.62265 40.6998 8.59281 40.6496 8.56432 40.613C8.50871 40.5384 8.45717 40.457 8.40698 40.381C8.38392 40.3458 8.35951 40.3119 8.33781 40.278C8.26727 40.1735 8.19945 40.0582 8.13842 39.9443C8.12485 39.9185 8.11265 39.8941 8.10179 39.8697C8.05568 39.7842 8.01092 39.692 7.97023 39.6038C7.95395 39.5672 7.93903 39.5279 7.92275 39.4913C7.8902 39.4139 7.85629 39.3366 7.82781 39.2566C7.81017 39.2091 7.79661 39.1616 7.78033 39.1155C7.75592 39.0436 7.7315 38.9718 7.7098 38.8999C7.69488 38.8497 7.68403 38.7995 7.67182 38.7507C7.65283 38.6788 7.63249 38.6082 7.61757 38.535C7.59586 38.4346 7.57687 38.3343 7.5606 38.2325C7.55788 38.2108 7.55517 38.1878 7.5511 38.1634C7.54025 38.0725 7.52804 37.9762 7.51991 37.8799C7.51719 37.8622 7.57009 37.8419 7.56874 37.8229C7.5606 37.7117 7.60943 37.6059 7.60943 37.496V37.4431C7.60943 37.3319 7.55789 37.222 7.56602 37.1094C7.56602 37.0972 7.54025 37.0877 7.54025 37.081C7.54839 36.963 7.54568 36.8436 7.56331 36.7256L3.7356 36.5126C4.09368 37.3414 3.80342 38.4726 2.87158 38.8117C2.88379 38.8619 2.89735 38.9134 2.90956 38.965C2.92312 39.0179 2.93398 39.0735 2.95025 39.1291C2.95296 39.1372 2.95568 39.1467 2.95975 39.1576C2.98687 39.2485 3.01671 39.338 3.04656 39.4248C3.06419 39.4777 3.07911 39.5279 3.0981 39.5794C3.10081 39.5862 3.10352 39.593 3.10624 39.6011C3.1415 39.6947 3.18219 39.791 3.22153 39.8846C3.24052 39.9307 3.25679 39.9768 3.27714 40.0216C3.2785 40.0257 3.27985 40.0297 3.28257 40.0338C3.28392 40.0379 3.28528 40.0419 3.28664 40.0447C3.41685 40.3309 3.56605 40.6035 3.7356 40.8666C3.73967 40.8748 3.74509 40.8843 3.75052 40.8924C3.77765 40.9331 3.80749 40.9724 3.83597 41.0145C3.89429 41.0999 3.95398 41.1854 4.01773 41.2695C4.02858 41.2857 4.03807 41.2993 4.04892 41.3156C4.07605 41.3495 4.10589 41.382 4.13437 41.416C4.17778 41.4702 4.21983 41.5272 4.26459 41.5801C4.28765 41.6059 4.31206 41.6276 4.33376 41.6574C4.35004 41.6764 4.3636 41.694 4.38124 41.7103C4.40565 41.7388 4.43278 41.7632 4.45719 41.789C4.52773 41.8663 4.59961 41.9395 4.67421 42.0114C4.69863 42.0372 4.71898 42.0602 4.74475 42.0847C4.78815 42.1253 4.83291 42.166 4.87767 42.2054C4.89531 42.2217 4.91158 42.2352 4.92921 42.2515C4.93871 42.2596 4.9482 42.2691 4.95906 42.2786C5.03094 42.341 5.10554 42.4034 5.1815 42.4631C5.20185 42.4794 5.22355 42.4929 5.2439 42.5092C5.2656 42.5268 5.28594 42.5404 5.309 42.5567C5.34291 42.5852 5.37818 42.6123 5.41209 42.6381C5.49076 42.6923 5.5735 42.7506 5.65488 42.8022C5.70371 42.8347 5.75525 42.8659 5.80679 42.8971C5.85698 42.927 5.90852 42.9582 5.95871 42.9894C5.99126 43.0056 6.02246 43.0219 6.05501 43.0423C6.05773 43.0423 6.06044 43.0463 6.06315 43.0477C6.07943 43.0558 6.0957 43.068 6.11334 43.0762C6.16624 43.1019 6.21778 43.1318 6.27068 43.1589C6.32222 43.1847 6.37512 43.2077 6.42802 43.2322C6.44565 43.2403 6.46057 43.2511 6.4782 43.2593C6.48634 43.2634 6.49584 43.2647 6.50533 43.2715C6.5189 43.2769 6.5311 43.2837 6.54331 43.2905C6.63554 43.3298 6.72778 43.3705 6.82273 43.4071C6.84172 43.4139 6.86206 43.422 6.88241 43.4288C6.90682 43.441 6.93124 43.4478 6.95565 43.456C7.00584 43.4749 7.05467 43.4939 7.1035 43.5116C7.17403 43.536 7.24456 43.555 7.31509 43.5794C7.3273 43.5794 7.33951 43.5862 7.35171 43.5902C7.35578 43.5916 7.35985 43.5916 7.36528 43.5957C7.37206 43.597 7.3802 43.5997 7.38834 43.6011C7.47379 43.6282 7.55924 43.6499 7.64605 43.6716C7.68403 43.6811 7.72336 43.6879 7.76134 43.696C7.78576 43.7015 7.81153 43.7096 7.8373 43.715C7.86036 43.7191 7.88342 43.7259 7.90648 43.7313C7.99328 43.7489 8.08009 43.7625 8.16961 43.7774C8.19267 43.7828 8.21709 43.7842 8.2415 43.7883C8.24828 43.7896 8.25507 43.7923 8.26185 43.7923C8.27134 43.7951 8.28084 43.7951 8.29033 43.7951C8.33916 43.8032 8.38528 43.81 8.43275 43.8154C8.49515 43.8222 8.5589 43.8507 8.62265 43.8574C8.68504 43.8629 8.74879 43.89 8.81254 43.8927C8.87493 43.8995 8.93868 43.6716 9.00243 43.673C9.06618 43.6784 9.12993 43.4953 9.19368 43.4953H9.27642C9.30491 43.4953 9.33068 43.6689 9.35916 43.6689C9.38358 43.6689 9.40799 43.7327 9.43241 43.7137C9.46767 43.711 9.50565 43.7774 9.54092 43.7761L9.52193 43.8154C9.58296 43.814 9.644 43.6567 9.70504 43.6526C9.72132 43.6513 9.73895 43.4953 9.75523 43.4953H9.77964C9.79727 43.4953 9.81626 43.6621 9.83525 43.6594C9.93969 43.6472 10.0441 43.7191 10.1472 43.7055C10.1879 43.6974 10.2272 43.7327 10.2652 43.7259C10.2774 43.7259 10.2896 43.7449 10.3018 43.7435C10.3141 43.7422 10.3249 43.7489 10.3371 43.7462C10.3764 43.7394 10.4158 43.7381 10.4538 43.7327C10.5568 43.711 10.6572 43.692 10.7589 43.6676C10.7807 43.6621 10.801 43.6567 10.8227 43.6526C10.8281 43.6513 10.8336 43.6513 10.8403 43.6472C10.8458 43.6472 10.8525 43.6431 10.8607 43.6418C10.877 43.6377 10.8959 43.6336 10.9136 43.6282C10.9651 43.6147 11.0153 43.5997 11.0655 43.5848C11.117 43.5713 11.1672 43.5563 11.216 43.5387C11.2662 43.5238 11.3164 43.5061 11.3666 43.4899L13.4161 42.7669C13.157 42.9677 12.8844 43.1548 12.5982 43.3176C12.2835 43.498 11.9553 43.6526 11.6162 43.7788C12.6389 43.3963 13.663 43.0111 14.6857 42.6231C14.9597 42.5228 15.2242 42.3966 15.4778 42.2542C15.7301 42.1091 15.9715 41.9436 16.2008 41.7618C16.43 41.5774 16.6443 41.3766 16.8423 41.1555C17.0404 40.9358 17.2235 40.6998 17.3876 40.4475L18.135 39.2946C18.1797 39.2078 18.2285 39.1223 18.2787 39.0382C18.3126 38.9785 18.3452 38.9175 18.3791 38.8592C18.4184 38.7968 18.4591 38.7303 18.4998 38.6679C18.5324 38.6137 18.5636 38.5621 18.5975 38.5133C18.6477 38.436 18.6992 38.36 18.7508 38.2868C18.782 38.2393 18.8131 38.1945 18.8443 38.1484C18.9284 38.0318 19.0139 37.9138 19.1007 37.7971C19.6216 37.1298 20.1587 36.5506 20.7162 36.0582C21.275 35.5672 21.8555 35.1603 22.4645 34.8375C23.0722 34.516 23.7083 34.276 24.3757 34.1186C25.043 33.9613 25.747 33.8826 26.4862 33.8826C26.7683 33.8826 27.0491 33.8948 27.3285 33.9192C27.6093 33.9436 27.8887 33.9803 28.1668 34.0291C28.4462 34.0766 28.7229 34.1376 28.9982 34.2095C29.2749 34.2827 29.5489 34.3668 29.8216 34.4631C30.1213 34.5703 30.4157 34.6856 30.7018 34.8185C30.9894 34.9487 31.2688 35.0925 31.5401 35.2498C31.8127 35.4072 32.0772 35.5781 32.3322 35.7598C32.5886 35.9402 32.8381 36.1342 33.0769 36.3417C33.2491 36.4923 33.4173 36.6456 33.5814 36.8097C33.7469 36.9724 33.907 37.1447 34.063 37.3251C34.2203 37.5055 34.3749 37.694 34.5268 37.8907C34.6788 38.0901 34.828 38.3017 34.9758 38.5214L36.2278 40.4489C36.3824 40.6876 36.5546 40.9127 36.7391 41.1189C36.9236 41.3278 37.1243 41.5231 37.3359 41.6994C37.5475 41.8744 37.7713 42.0345 38.0087 42.1769C38.242 42.3193 38.4888 42.4427 38.7425 42.5499C39.6553 42.927 40.5668 43.3068 41.4783 43.6852C41.1623 43.555 40.8571 43.399 40.5655 43.2227C40.2725 43.0463 39.9944 42.8497 39.7299 42.6286C39.7272 42.6245 39.7232 42.6218 39.7204 42.6191C40.0677 42.7547 40.4163 42.8863 40.7635 43.0233C41.1107 43.1576 41.4485 43.2891 41.7496 43.4071C41.7943 43.4248 41.8391 43.4397 41.8839 43.456C41.9286 43.4722 41.9734 43.4872 42.0195 43.5048C42.0643 43.5184 42.109 43.5333 42.1551 43.5468C42.1999 43.5604 42.246 43.5251 42.2935 43.5387C42.3016 43.5414 42.3084 43.4967 42.3166 43.4967H42.3233C42.3993 43.4967 42.4753 43.5889 42.5526 43.6065C42.6394 43.6309 42.7248 43.5523 42.8143 43.5713C42.836 43.574 42.8591 43.4967 42.8822 43.4967H42.9052C42.9147 43.4967 42.9256 43.6201 42.9364 43.6214C42.9839 43.6309 43.0314 43.6988 43.0802 43.7069C43.1697 43.7205 43.2592 43.7639 43.3488 43.7734C43.4125 43.7815 43.4763 43.8249 43.5414 43.8303C43.6051 43.8344 43.6689 43.8737 43.734 43.8778C43.7991 43.8819 43.8628 43.6648 43.9279 43.6662C43.993 43.6676 44.0581 43.4967 44.1233 43.4967H44.206C44.2345 43.4967 44.2616 43.6689 44.2887 43.6689C44.3159 43.6662 44.343 43.7082 44.3688 43.7015C44.3945 43.7001 44.4189 43.7693 44.4447 43.7679L44.4529 43.8046C44.4813 43.8032 44.5112 43.8168 44.5397 43.8154C44.5776 43.8127 44.6156 43.8181 44.6522 43.8154C44.6902 43.8127 44.7296 43.8168 44.7662 43.8127C44.8462 43.8045 44.9249 43.7951 45.0036 43.7842C45.0212 43.7815 45.0388 43.6404 45.0564 43.6377C45.0619 43.6377 45.0673 43.4967 45.07 43.4967H45.0795C45.1839 43.4967 45.287 43.6052 45.3901 43.5848C45.4172 43.5794 45.443 43.6431 45.4701 43.6364C45.5054 43.6296 45.542 43.6567 45.5773 43.6486C45.6166 43.6391 45.6587 43.6486 45.698 43.6364C45.7319 43.6282 45.7658 43.6255 45.8011 43.6174C45.8567 43.6024 45.9123 43.5957 45.9666 43.5794C46.0168 43.5645 46.067 43.5482 46.1185 43.5319C46.1483 43.5224 46.1809 43.5156 46.2121 43.5048C46.2392 43.4966 46.2636 43.4844 46.288 43.4763C46.3925 43.4397 46.4969 43.4003 46.5987 43.3597C46.6366 43.3447 46.676 43.3312 46.7126 43.3149C46.7316 43.3068 46.7492 43.2986 46.7668 43.2891C46.7899 43.2783 46.8157 43.2688 46.8401 43.2593C46.9242 43.2213 47.0069 43.1779 47.0897 43.1345C47.1263 43.1155 47.1629 43.1019 47.1982 43.083C47.2063 43.0762 47.2145 43.0748 47.224 43.0694C47.3759 42.9867 47.5237 42.9012 47.6688 42.809L43.734 41.8351Z" fill="#7C221C"/>
<path d="M26.3533 3.58237C26.7493 3.63255 28.0922 4.74207 29.9708 6.58133C31.848 8.42194 34.2623 10.9896 36.7988 13.9519C39.3379 16.9143 42.0019 20.2699 44.3769 23.6826C46.7519 27.0953 48.8394 30.5662 50.2229 33.7578C50.7777 34.8036 51.0083 35.8209 51.0123 36.7785C51.0164 37.7334 50.7967 38.6245 50.4508 39.4234C50.1049 40.2196 49.6342 40.9209 49.1378 41.496C48.6427 42.0711 48.1205 42.516 47.6729 42.8008C47.4057 42.9731 47.129 43.1209 46.8455 43.2511C46.5607 43.3814 46.269 43.4899 45.9706 43.5767C45.6722 43.6621 45.3684 43.7286 45.0605 43.772C44.7526 43.8181 44.4406 43.8385 44.126 43.8385C43.5699 43.8385 43.0259 43.7693 42.5037 43.6377C41.9815 43.5061 41.4797 43.3081 41.009 43.0531C40.5383 42.7981 40.1029 42.4848 39.7055 42.1199C39.3095 41.7551 38.9554 41.3373 38.6543 40.8734L37.0226 38.3614L36.9466 38.219C36.7784 37.983 36.6048 37.7551 36.4285 37.5299C36.2481 37.3075 36.065 37.0891 35.8764 36.8802C35.6879 36.67 35.4939 36.4652 35.2932 36.2671C35.0938 36.0718 34.8876 35.8819 34.6774 35.7029C34.3709 35.437 34.0548 35.1902 33.7279 34.9555C33.401 34.7236 33.0647 34.5052 32.7161 34.3044C32.3702 34.1051 32.0135 33.9206 31.6486 33.7524C31.281 33.5856 30.908 33.435 30.5255 33.3007C30.1769 33.1759 29.827 33.0728 29.4743 32.9806C29.1217 32.8884 28.7676 32.8111 28.4123 32.75C28.0555 32.6903 27.7002 32.6442 27.3407 32.613C26.9826 32.5818 26.6232 32.5669 26.2651 32.5669C25.317 32.5669 24.4164 32.6659 23.5605 32.8707C22.7046 33.0728 21.8908 33.378 21.1136 33.789C20.335 34.2014 19.5931 34.7181 18.881 35.3448C18.1675 35.9741 17.4839 36.712 16.8206 37.5625C16.6999 37.7185 16.5833 37.8731 16.4707 38.0318C16.3581 38.1891 16.2496 38.3465 16.1479 38.5079C16.0448 38.6652 15.9471 38.8266 15.8535 38.984C15.7599 39.144 15.6718 39.3014 15.5904 39.4587L14.668 40.8775C14.3656 41.3427 14.0115 41.7618 13.6155 42.1294C13.2181 42.4956 12.78 42.8103 12.3093 43.0653C11.8386 43.3203 11.3368 43.5184 10.8132 43.6526C10.2896 43.7869 9.74437 43.8561 9.18961 43.8561C8.87628 43.8561 8.56296 43.8303 8.25642 43.7883C7.94716 43.7449 7.64333 43.6743 7.34764 43.5889C7.04924 43.5021 6.75761 43.3909 6.47413 43.2606C6.19065 43.1277 5.9153 42.9772 5.6508 42.8049C5.12317 42.4644 4.65929 42.0521 4.26187 41.5855C3.86581 41.1189 3.53756 40.6021 3.28663 40.0487C3.03434 39.4967 2.86073 38.9094 2.7712 38.3058C2.68033 37.7035 2.6749 37.0837 2.76171 36.4652C2.84309 36.1939 2.9299 35.924 3.02485 35.6554C3.11844 35.3882 3.22017 35.121 3.32868 34.8592C3.43583 34.5974 3.54977 34.3356 3.67049 34.0834C3.7912 33.8284 3.91735 33.5761 4.04892 33.3292L5.61147 30.9298C6.45921 29.8324 7.36256 28.8721 8.31881 28.0502C9.27642 27.2268 10.2842 26.5378 11.3449 25.9871C12.4056 25.4364 13.5178 25.0214 14.6789 24.7447C15.84 24.4666 17.0498 24.3269 18.3086 24.3269C18.8172 24.3269 19.3218 24.3513 19.8237 24.3947C20.3255 24.4422 20.8247 24.5086 21.3211 24.5955C21.8148 24.685 22.3072 24.7976 22.7914 24.9305C23.277 25.0661 23.7585 25.2221 24.2346 25.3998C24.746 25.5924 25.2465 25.8053 25.7334 26.0441C26.2217 26.2801 26.6964 26.5432 27.159 26.8267C27.6229 27.1129 28.0732 27.4208 28.5086 27.7531C28.9453 28.0854 29.3685 28.4408 29.7781 28.8152L30.691 29.6507L30.0535 28.5886C29.9382 28.3947 29.8161 28.1953 29.6859 27.9878C29.5557 27.7802 29.4214 27.5619 29.2817 27.3394C29.142 27.117 28.9982 26.8918 28.8517 26.6585C28.7025 26.4252 28.5533 26.1892 28.4001 25.9478C27.8182 25.0336 27.1834 24.0326 26.5405 22.9827C25.8975 21.9356 25.2478 20.8396 24.6402 19.7342C24.0312 18.626 23.4615 17.507 22.98 16.4124C22.4984 15.3178 22.1037 14.2476 21.8419 13.2371C21.7253 12.3894 21.7063 11.5674 21.7877 10.7698C21.8691 9.97093 22.0481 9.19915 22.3248 8.45314C22.6015 7.70713 22.9759 6.9896 23.4479 6.29785C23.9199 5.60609 24.4869 4.94418 25.1502 4.30939C25.2885 4.18324 25.4092 4.07745 25.5205 3.98793C25.633 3.90112 25.7348 3.82787 25.8297 3.7709C25.9247 3.71529 26.0128 3.67053 26.0983 3.64205C26.1864 3.60949 26.2692 3.58779 26.3533 3.58237Z" fill="url(#paint3_radial_1_449)"/>
<path d="M50.5443 33.6005C51.1262 34.7005 51.3663 35.768 51.3717 36.7717C51.3771 37.7727 51.1452 38.714 50.783 39.5509C50.4209 40.3892 49.9258 41.1284 49.4049 41.7293C48.8855 42.3329 48.3375 42.8049 47.8682 43.1033C47.586 43.2823 47.2944 43.4397 46.9933 43.578C46.6935 43.715 46.3843 43.8276 46.0696 43.9198C45.7549 44.0121 45.4348 44.0812 45.1106 44.1274C44.7851 44.1748 44.4569 44.2006 44.1273 44.2006C43.5413 44.2006 42.9676 44.1247 42.4155 43.9863C41.8635 43.8452 41.3345 43.6364 40.8394 43.3691C40.3443 43.1006 39.8831 42.7683 39.4654 42.3817C39.049 41.9978 38.676 41.557 38.3586 41.066L36.8042 38.6761C36.621 38.4021 36.4352 38.1403 36.2453 37.8961C36.0581 37.6466 35.8669 37.4133 35.6716 37.1895C35.4749 36.9684 35.2755 36.7568 35.0734 36.5533C34.8686 36.3485 34.6597 36.1559 34.4454 35.9714C34.1484 35.7164 33.8405 35.4736 33.5217 35.2471C33.203 35.0233 32.8747 34.8117 32.5383 34.6164C32.2006 34.4224 31.8534 34.2434 31.4966 34.0793C31.1399 33.9152 30.7764 33.7687 30.4034 33.6385C30.0656 33.5218 29.7252 33.416 29.3834 33.3265C29.0402 33.2383 28.6971 33.161 28.3512 33.1013C28.0053 33.0416 27.6594 32.9969 27.3108 32.9657C26.9636 32.9331 26.6136 32.9196 26.2651 32.9196C25.3468 32.9196 24.476 33.0145 23.6459 33.2126C22.8171 33.4106 22.0291 33.7049 21.2722 34.1051C20.5167 34.5065 19.7978 35.0084 19.1034 35.6228C18.4102 36.2319 17.7443 36.9507 17.0973 37.7795C16.982 37.9301 16.8694 38.0847 16.7609 38.2366C16.6524 38.3912 16.5479 38.5458 16.4476 38.6991C16.3472 38.8565 16.2509 39.0111 16.16 39.1684C16.0678 39.3217 15.9796 39.4804 15.8996 39.6364L14.9705 41.0674C14.6517 41.5584 14.276 42.0006 13.8582 42.3871C13.4391 42.7764 12.9766 43.1087 12.4801 43.3773C11.9837 43.6486 11.4534 43.8574 10.9013 43.9972C10.3479 44.1382 9.77415 44.2128 9.18819 44.2128C8.85724 44.2128 8.52763 44.1898 8.20346 44.1409C7.87793 44.0935 7.55782 44.0229 7.24314 43.9293C6.93117 43.8371 6.62192 43.7205 6.32351 43.5821C6.02375 43.4437 5.73349 43.2837 5.45407 43.1033C4.89795 42.7425 4.4083 42.3071 3.98918 41.8161C3.57005 41.3251 3.22418 40.7771 2.95833 40.1925C2.69383 39.6093 2.50801 38.9853 2.41442 38.3465C2.31811 37.7062 2.31133 37.0484 2.40357 36.3919C2.49037 36.1057 2.58261 35.8209 2.68027 35.5428C2.77793 35.2648 2.88237 34.9894 2.99224 34.7208C3.10346 34.4496 3.22011 34.1851 3.3449 33.9206C3.46833 33.6588 3.5999 33.3997 3.73689 33.1474L5.31165 30.7236C6.18109 29.5991 7.10614 28.6158 8.0841 27.7735C9.06476 26.9284 10.097 26.2245 11.1821 25.6643C12.2672 25.1 13.4038 24.6768 14.592 24.3961C15.7802 24.1126 17.0186 23.9715 18.3058 23.9715C18.8239 23.9715 19.3421 23.9932 19.8561 24.0393C20.3689 24.0854 20.8789 24.1546 21.3848 24.2441C21.8907 24.335 22.3926 24.4476 22.889 24.586C23.3855 24.7216 23.8765 24.8803 24.3607 25.062C24.7934 25.2207 25.2179 25.3998 25.633 25.5965C26.048 25.7931 26.4563 26.0034 26.8551 26.2326C27.2539 26.4605 27.6445 26.7046 28.0256 26.9637C28.4081 27.2255 28.7798 27.5022 29.1433 27.7938C29.0633 27.6636 28.9805 27.532 28.8951 27.3964C28.8096 27.2607 28.7242 27.1237 28.636 26.984C28.5478 26.847 28.4583 26.706 28.3674 26.5622C28.2766 26.4211 28.1857 26.2747 28.0935 26.1295C27.5089 25.2099 26.87 24.2075 26.2257 23.1536C25.5787 22.1024 24.9263 20.9983 24.3119 19.882C23.6988 18.7671 23.1264 17.6358 22.6394 16.5277C22.1539 15.4209 21.7524 14.3344 21.4852 13.3063C21.3658 12.4219 21.3468 11.566 21.4295 10.7359C21.5136 9.90718 21.6981 9.10691 21.9843 8.33377C22.2692 7.56064 22.6557 6.81598 23.1427 6.10117C23.6296 5.38771 24.2169 4.70003 24.9032 4.04489C25.0552 3.90383 25.1935 3.78582 25.321 3.68409C25.4499 3.58643 25.5679 3.5037 25.6832 3.43995C25.7985 3.3762 25.907 3.32872 26.0182 3.29617C26.1294 3.2609 26.2393 3.24191 26.3546 3.22971C26.8551 3.29074 28.2834 4.45181 30.227 6.3521C32.1707 8.25239 34.6312 10.8906 37.1961 13.9044C39.7624 16.9183 42.4331 20.3106 44.7946 23.7138C47.1628 27.1183 49.2151 30.5378 50.5443 33.6005ZM47.6715 42.7995C48.1191 42.5146 48.6413 42.0697 49.1364 41.4946C49.6328 40.9195 50.1035 40.2196 50.4494 39.4221C50.7939 38.6232 51.015 37.732 51.0109 36.7771C51.0068 35.8209 50.7763 34.8036 50.2215 33.7565C48.838 30.5662 46.7519 27.0939 44.3755 23.6812C42.0018 20.2686 39.3365 16.9129 36.7974 13.9506C34.2596 10.9909 31.8466 8.42194 29.9693 6.57997C28.0907 4.74343 26.7493 3.6312 26.3519 3.58101C26.2678 3.58643 26.185 3.60814 26.1009 3.63526C26.0155 3.66375 25.9273 3.70851 25.8324 3.76412C25.7374 3.82109 25.6357 3.89433 25.5231 3.98114C25.4105 4.07066 25.2898 4.17782 25.1528 4.3026C24.4896 4.93739 23.9212 5.59931 23.4506 6.29106C22.9799 6.98282 22.6042 7.70034 22.3275 8.44635C22.0508 9.19237 21.8717 9.96415 21.7903 10.7631C21.709 11.5606 21.728 12.3826 21.8432 13.2317C22.105 14.2408 22.4997 15.311 22.9813 16.4056C23.4628 17.5016 24.0324 18.6192 24.6415 19.7274C25.2491 20.8315 25.8988 21.9288 26.5418 22.9759C27.1833 24.0244 27.8195 25.0268 28.4014 25.941C28.5533 26.1838 28.7038 26.4198 28.853 26.6517C29.0009 26.885 29.1447 27.1115 29.2844 27.3326C29.4241 27.5551 29.5597 27.7721 29.6886 27.981C29.8174 28.1899 29.9409 28.3893 30.0561 28.5819L30.6936 29.6439L29.7808 28.8084C29.3725 28.434 28.9493 28.0786 28.5112 27.7463C28.0758 27.4154 27.6255 27.1061 27.1616 26.8199C26.6991 26.5364 26.2244 26.2733 25.7361 26.0373C25.2478 25.7986 24.7486 25.5856 24.2373 25.3957C23.7612 25.2153 23.2797 25.0593 22.7941 24.9237C22.3085 24.7908 21.8175 24.6782 21.321 24.5887C20.826 24.5019 20.3282 24.4354 19.8249 24.3879C19.3231 24.3445 18.8172 24.3228 18.3099 24.3228C17.0511 24.3228 15.8413 24.4625 14.6802 24.7379C13.5191 25.0146 12.4055 25.4296 11.3462 25.9803C10.2855 26.531 9.27636 27.2201 8.32011 28.0434C7.36386 28.8653 6.46186 29.8257 5.61277 30.923L4.05021 33.3224C3.91729 33.5693 3.79115 33.8202 3.67178 34.0766C3.55107 34.3302 3.43713 34.5906 3.32997 34.8524C3.22146 35.1142 3.12109 35.3814 3.02614 35.6486C2.9312 35.9158 2.84303 36.1857 2.76301 36.4584C2.67484 37.0769 2.68162 37.6968 2.7725 38.299C2.86202 38.9026 3.037 39.4899 3.28793 40.0419C3.53886 40.5953 3.86846 41.1121 4.26317 41.5787C4.66059 42.0467 5.12447 42.4577 5.6521 42.7981C5.9166 42.9704 6.19194 43.1209 6.47543 43.2539C6.75891 43.3854 7.05053 43.4953 7.34894 43.5821C7.64599 43.6676 7.94982 43.7381 8.25907 43.7815C8.56561 43.8235 8.87894 43.8493 9.19226 43.8493C9.74838 43.8493 10.2923 43.7788 10.8159 43.6458C11.3394 43.5116 11.8413 43.3135 12.3119 43.0585C12.784 42.8035 13.2207 42.4875 13.6181 42.1226C14.0142 41.7551 14.3682 41.3373 14.6707 40.8707L15.593 39.4519C15.6758 39.2959 15.7626 39.1386 15.8562 38.9772C15.9484 38.8212 16.0474 38.6598 16.1505 38.5011C16.2536 38.341 16.3621 38.1837 16.4733 38.025C16.5859 37.8663 16.7026 37.713 16.8233 37.5557C17.4865 36.7052 18.1702 35.9674 18.8836 35.338C19.5957 34.71 20.3377 34.1932 21.1162 33.7822C21.8934 33.3712 22.7073 33.0674 23.5631 32.864C24.419 32.6605 25.3183 32.5601 26.2678 32.5601C26.6259 32.5601 26.9853 32.575 27.342 32.6062C27.7015 32.6361 28.0582 32.6836 28.4149 32.7432C28.7703 32.8043 29.1243 32.8816 29.477 32.9738C29.8296 33.0661 30.1796 33.1719 30.5282 33.2939C30.9107 33.4282 31.2837 33.5788 31.6513 33.7456C32.0175 33.9138 32.3728 34.0983 32.7187 34.2977C33.066 34.4984 33.4037 34.7181 33.7306 34.9487C34.0575 35.1834 34.3735 35.4289 34.6801 35.6961C34.8903 35.8751 35.0965 36.065 35.2959 36.2603C35.4952 36.4597 35.6892 36.6632 35.8764 36.8761C36.0636 37.0864 36.244 37.3048 36.4189 37.5313C36.5939 37.7551 36.7607 37.987 36.9222 38.2244L37.0252 38.356L38.657 40.868C38.9594 41.3319 39.3135 41.7496 39.7082 42.1145C40.1042 42.4794 40.541 42.7913 41.0117 43.0477C41.481 43.3027 41.9828 43.4994 42.5064 43.6323C43.0299 43.7652 43.5725 43.833 44.1286 43.833C44.4433 43.833 44.7539 43.8127 45.0618 43.7666C45.3711 43.7245 45.6749 43.6581 45.9719 43.5712C46.2703 43.4844 46.5633 43.3746 46.8482 43.2457C47.1289 43.1209 47.4056 42.9717 47.6715 42.7995Z" fill="url(#paint4_linear_1_449)"/>
<path d="M66.3813 35.7015C66.3813 36.3566 66.2769 36.9534 66.0666 37.4892C65.8577 38.0263 65.5607 38.4875 65.1782 38.8727C64.7957 39.2566 64.3386 39.5563 63.8055 39.7679C63.2725 39.9782 62.6797 40.084 62.0287 40.084H58.7327V31.319H62.0287C62.6797 31.319 63.2725 31.4248 63.8055 31.6364C64.3386 31.848 64.7957 32.1451 65.1782 32.5289C65.5607 32.9141 65.8564 33.3767 66.0666 33.9138C66.2769 34.4563 66.3813 35.0504 66.3813 35.7015ZM65.0507 35.7015C65.0507 35.182 64.9788 34.7141 64.8364 34.3017C64.694 33.8894 64.4919 33.5381 64.2287 33.2519C63.967 32.9657 63.6496 32.7459 63.2766 32.5967C62.9035 32.4475 62.4871 32.3702 62.0287 32.3702H60.0389V39.0355H62.0287C62.4885 39.0355 62.9049 38.9609 63.2766 38.8103C63.6482 38.6598 63.9656 38.4414 64.2287 38.1538C64.4919 37.8676 64.694 37.5177 64.8364 37.1081C64.9788 36.6984 65.0507 36.2264 65.0507 35.7015Z" fill="white" stroke="white" stroke-width="0.339096" stroke-miterlimit="10"/>
<path d="M70.2998 40.084H68.9937V31.319H70.2998V40.084Z" fill="white" stroke="white" stroke-width="0.339096" stroke-miterlimit="10"/>
<path d="M80.591 35.8182V39.2362C80.1474 39.5536 79.6754 39.791 79.1749 39.9483C78.6744 40.1043 78.1291 40.1816 77.5391 40.1816C76.8311 40.1816 76.1909 40.0731 75.6198 39.8534C75.0488 39.6337 74.5605 39.3258 74.1577 38.9311C73.7548 38.5363 73.4442 38.0643 73.2258 37.515C73.0088 36.9657 72.8989 36.3607 72.8989 35.7015C72.8989 35.0396 73.0034 34.4319 73.2136 33.8799C73.4225 33.3278 73.7223 32.8558 74.1142 32.4638C74.5062 32.0718 74.9783 31.7653 75.533 31.5469C76.0891 31.3299 76.7117 31.2214 77.4035 31.2214C77.7534 31.2214 78.0776 31.2485 78.3774 31.3014C78.6758 31.3543 78.9538 31.4303 79.2102 31.5266C79.4665 31.6242 79.7025 31.7409 79.9209 31.8792C80.1393 32.0149 80.3414 32.1681 80.5286 32.3404L80.1569 32.9263C80.1 33.0186 80.024 33.0783 79.9304 33.104C79.8368 33.1284 79.7351 33.1054 79.6252 33.0362C79.5194 32.9738 79.4028 32.9033 79.2739 32.8233C79.1464 32.7405 78.9932 32.6673 78.8168 32.5967C78.6405 32.5276 78.433 32.4679 78.197 32.4204C77.9609 32.3702 77.6815 32.3458 77.3601 32.3458C76.8799 32.3458 76.4472 32.4245 76.0607 32.5818C75.6741 32.7378 75.3445 32.963 75.0719 33.2546C74.7992 33.5489 74.5903 33.9016 74.4438 34.3139C74.2974 34.7263 74.2241 35.1902 74.2241 35.7015C74.2241 36.2386 74.3014 36.7215 74.4561 37.1447C74.6107 37.5706 74.8291 37.93 75.1125 38.2257C75.3947 38.5201 75.7392 38.7452 76.1448 38.8999C76.549 39.0545 77.002 39.1318 77.5025 39.1318C77.6978 39.1318 77.8796 39.1209 78.0491 39.0992C78.2187 39.0775 78.3801 39.045 78.5347 39.0057C78.6893 38.9636 78.8385 38.9134 78.9837 38.8524C79.1288 38.7913 79.2712 38.7249 79.4136 38.6516V36.8151H78.1196C78.0383 36.8151 77.9718 36.7893 77.9216 36.7419C77.8701 36.693 77.8457 36.632 77.8457 36.5587V35.8195H80.591V35.8182Z" fill="white" stroke="white" stroke-width="0.339096" stroke-miterlimit="10"/>
<path d="M84.626 40.084H83.3198V31.319H84.626V40.084Z" fill="white" stroke="white" stroke-width="0.339096" stroke-miterlimit="10"/>
<path d="M93.7383 32.4055H90.955V40.084H89.661V32.4055H86.8655V31.319H93.7383V32.4055Z" fill="white" stroke="white" stroke-width="0.339096" stroke-miterlimit="10"/>
<path d="M102.35 40.084H101.349C101.235 40.084 101.141 40.0555 101.068 39.9985C100.995 39.9429 100.942 39.8683 100.909 39.7788L100.135 37.7469H96.2705L95.4947 39.7788C95.4662 39.8575 95.4133 39.9266 95.336 39.9904C95.2587 40.0528 95.1651 40.084 95.0552 40.084H94.0542L97.5455 31.319H98.8572L102.35 40.084ZM99.7808 36.8192L98.4814 33.4187C98.3878 33.1868 98.2943 32.8938 98.2007 32.5411C98.1559 32.7161 98.1098 32.8775 98.0637 33.0281C98.0162 33.1786 97.9714 33.3129 97.9253 33.4309L96.6313 36.8192H99.7808Z" fill="white" stroke="white" stroke-width="0.339096" stroke-miterlimit="10"/>
<path d="M109.437 38.9921V40.0853H104.42V31.3204H105.719V38.9921H109.437Z" fill="white" stroke="white" stroke-width="0.339096" stroke-miterlimit="10"/>
<path d="M124.592 31.319V40.084H123.458V33.8473C123.458 33.7537 123.461 33.6534 123.467 33.5476C123.474 33.4418 123.481 33.3333 123.489 33.2247L120.572 38.577C120.47 38.7764 120.314 38.8754 120.101 38.8754H119.918C119.706 38.8754 119.552 38.7778 119.454 38.577L116.481 33.2058C116.505 33.4336 116.517 33.6466 116.517 33.8473V40.0853H115.375V31.3204H116.34C116.454 31.3204 116.542 31.3312 116.605 31.3543C116.668 31.376 116.729 31.4384 116.786 31.5401L119.716 36.788C119.773 36.8938 119.826 37.0063 119.874 37.1244C119.923 37.2437 119.971 37.3604 120.015 37.4797C120.101 37.2383 120.201 37.0063 120.315 36.7825L123.191 31.5401C123.244 31.4384 123.302 31.376 123.364 31.3543C123.428 31.3299 123.516 31.3204 123.63 31.3204L124.592 31.319Z" fill="#FF7829" stroke="#FF7829" stroke-width="0.339096" stroke-miterlimit="10"/>
<path d="M134.963 40.084H133.962C133.848 40.084 133.756 40.0555 133.681 39.9985C133.608 39.9429 133.555 39.8683 133.522 39.7788L132.749 37.7469H128.883L128.109 39.7788C128.08 39.8575 128.028 39.9266 127.95 39.9904C127.873 40.0528 127.779 40.084 127.669 40.084H126.668L130.161 31.319H131.473L134.963 40.084ZM132.392 36.8192L131.092 33.4187C130.999 33.1868 130.904 32.8938 130.811 32.5411C130.766 32.7161 130.721 32.8775 130.674 33.0281C130.626 33.1786 130.582 33.3129 130.536 33.4309L129.242 36.8192H132.392Z" fill="#FF7829" stroke="#FF7829" stroke-width="0.339096" stroke-miterlimit="10"/>
<path d="M143.606 40.084H142.447C142.214 40.084 142.046 39.9931 141.94 39.81L139.772 36.7703C139.703 36.6686 139.629 36.5967 139.546 36.5547C139.465 36.5113 139.344 36.4896 139.18 36.4896H138.332V40.084H137.031V31.319H139.558C140.124 31.319 140.609 31.3774 141.02 31.4926C141.429 31.6093 141.766 31.7734 142.032 31.9864C142.299 32.2007 142.496 32.4584 142.626 32.7595C142.754 33.0606 142.818 33.3984 142.818 33.7714C142.818 34.0766 142.771 34.3655 142.677 34.6327C142.584 34.9012 142.446 35.1427 142.266 35.3556C142.082 35.5699 141.863 35.753 141.604 35.9077C141.343 36.0623 141.048 36.1803 140.719 36.2617C140.881 36.3594 141.022 36.4963 141.141 36.6713L143.606 40.084ZM139.516 35.5428C139.85 35.5428 140.144 35.5035 140.398 35.4207C140.653 35.3394 140.864 35.2241 141.035 35.0762C141.206 34.9284 141.335 34.7507 141.421 34.5445C141.506 34.3397 141.548 34.1132 141.548 33.865C141.548 33.359 141.383 32.9806 141.05 32.7229C140.719 32.4665 140.221 32.339 139.558 32.339H138.332V35.5415L139.516 35.5428Z" fill="#FF7829" stroke="#FF7829" stroke-width="0.339096" stroke-miterlimit="10"/>
<path d="M147.005 35.1101H147.432C147.585 35.1101 147.711 35.0898 147.806 35.0518C147.901 35.0125 147.988 34.946 148.065 34.8538L150.855 31.612C150.944 31.5022 151.037 31.4248 151.129 31.3828C151.223 31.3407 151.338 31.319 151.478 31.319H152.589L149.34 35.0545C149.258 35.1603 149.179 35.2458 149.099 35.3109C149.019 35.3746 148.937 35.4302 148.852 35.475C149.074 35.5523 149.271 35.7083 149.438 35.9457L152.813 40.084H151.684C151.601 40.084 151.532 40.0772 151.473 40.065C151.414 40.0528 151.364 40.0365 151.322 40.0135C151.279 39.9904 151.239 39.9633 151.205 39.9307C151.171 39.8982 151.139 39.8588 151.11 39.8141L148.223 36.396C148.183 36.3431 148.141 36.2983 148.101 36.2603C148.061 36.2237 148.014 36.1939 147.96 36.1735C147.907 36.1491 147.846 36.1342 147.776 36.1234C147.707 36.1139 147.626 36.1084 147.532 36.1084H147.001V40.0826H145.701V31.3177H147.001V35.1101H147.005Z" fill="#FF7829" stroke="#FF7829" stroke-width="0.339096" stroke-miterlimit="10"/>
<path d="M160.281 39.0287L160.274 40.084H154.842V31.319H160.274V32.3743H156.148V35.1522H159.469V36.1722H156.148V39.0274L160.281 39.0287Z" fill="#FF7829" stroke="#FF7829" stroke-width="0.339096" stroke-miterlimit="10"/>
<path d="M168.839 32.4055H166.054V40.084H164.761V32.4055H161.964V31.319H168.837L168.839 32.4055Z" fill="#FF7829" stroke="#FF7829" stroke-width="0.339096" stroke-miterlimit="10"/>
<path d="M172.384 40.084H171.078V31.319H172.384V40.084Z" fill="#FF7829" stroke="#FF7829" stroke-width="0.339096" stroke-miterlimit="10"/>
<path d="M182.698 31.319V40.084H182.04C181.938 40.084 181.853 40.065 181.786 40.0297C181.719 39.9931 181.651 39.9348 181.583 39.852L176.632 33.4486C176.64 33.5584 176.649 33.6656 176.654 33.7714C176.661 33.8772 176.665 33.9775 176.665 34.0711V40.084H175.523V31.319H176.193C176.307 31.319 176.392 31.3326 176.449 31.3584C176.506 31.3841 176.568 31.4438 176.639 31.5388L181.601 37.9477C181.588 37.8297 181.579 37.7144 181.572 37.6032C181.567 37.4919 181.564 37.3861 181.564 37.2885V31.3204L182.698 31.319Z" fill="#FF7829" stroke="#FF7829" stroke-width="0.339096" stroke-miterlimit="10"/>
<path d="M192.996 35.8182V39.2362C192.553 39.5536 192.08 39.791 191.58 39.9483C191.08 40.1043 190.534 40.1816 189.944 40.1816C189.237 40.1816 188.596 40.0731 188.024 39.8534C187.453 39.6337 186.966 39.3258 186.564 38.9311C186.159 38.5363 185.85 38.0643 185.63 37.515C185.413 36.9657 185.305 36.3607 185.305 35.7015C185.305 35.0396 185.409 34.4319 185.62 33.8799C185.828 33.3278 186.128 32.8558 186.519 32.4638C186.91 32.0718 187.383 31.7653 187.938 31.5469C188.494 31.3299 189.116 31.2214 189.809 31.2214C190.159 31.2214 190.484 31.2485 190.783 31.3014C191.083 31.3543 191.36 31.4303 191.616 31.5266C191.871 31.6242 192.109 31.7409 192.327 31.8792C192.544 32.0149 192.747 32.1681 192.933 32.3404L192.562 32.9263C192.505 33.0186 192.429 33.0783 192.335 33.104C192.243 33.1284 192.14 33.1054 192.03 33.0362C191.924 32.9738 191.807 32.9033 191.679 32.8233C191.55 32.7405 191.398 32.6673 191.221 32.5967C191.044 32.5276 190.838 32.4679 190.602 32.4204C190.366 32.3702 190.086 32.3458 189.765 32.3458C189.285 32.3458 188.852 32.4245 188.465 32.5818C188.079 32.7378 187.749 32.963 187.476 33.2546C187.204 33.5489 186.995 33.9016 186.848 34.3139C186.702 34.7263 186.629 35.1902 186.629 35.7015C186.629 36.2386 186.706 36.7215 186.861 37.1447C187.015 37.5706 187.234 37.93 187.516 38.2257C187.799 38.5201 188.144 38.7452 188.549 38.8999C188.954 39.0545 189.405 39.1318 189.906 39.1318C190.102 39.1318 190.284 39.1209 190.452 39.0992C190.621 39.0775 190.782 39.045 190.938 39.0057C191.091 38.9636 191.242 38.9134 191.386 38.8524C191.529 38.7913 191.675 38.7249 191.816 38.6516V36.8151H190.522C190.439 36.8151 190.374 36.7893 190.324 36.7419C190.273 36.693 190.246 36.632 190.246 36.5587V35.8195H192.996V35.8182Z" fill="#FF7829" stroke="#FF7829" stroke-width="0.339096" stroke-miterlimit="10"/>
<path d="M206.602 40.084H205.601C205.487 40.084 205.393 40.0555 205.32 39.9985C205.245 39.9429 205.192 39.8683 205.161 39.7788L204.387 37.7469H200.522L199.747 39.7788C199.718 39.8575 199.665 39.9266 199.589 39.9904C199.51 40.0528 199.418 40.084 199.308 40.084H198.307L201.799 31.319H203.112L206.602 40.084ZM204.033 36.8192L202.732 33.4187C202.64 33.1868 202.543 32.8938 202.451 32.5411C202.406 32.7161 202.362 32.8775 202.313 33.0281C202.267 33.1786 202.221 33.3129 202.174 33.4309L200.882 36.8192H204.033Z" fill="#FF7829" stroke="#FF7829" stroke-width="0.339096" stroke-miterlimit="10"/>
<path d="M215.585 35.8182V39.2362C215.143 39.5536 214.669 39.791 214.169 39.9483C213.67 40.1043 213.123 40.1816 212.533 40.1816C211.826 40.1816 211.185 40.0731 210.614 39.8534C210.043 39.6337 209.556 39.3258 209.153 38.9311C208.749 38.5363 208.439 38.0643 208.22 37.515C208.003 36.9657 207.894 36.3607 207.894 35.7015C207.894 35.0396 207.998 34.4319 208.209 33.8799C208.418 33.3278 208.717 32.8558 209.108 32.4638C209.499 32.0718 209.972 31.7653 210.527 31.5469C211.083 31.3299 211.705 31.2214 212.399 31.2214C212.749 31.2214 213.073 31.2485 213.372 31.3014C213.672 31.3543 213.949 31.4303 214.205 31.5266C214.46 31.6242 214.698 31.7409 214.916 31.8792C215.133 32.0149 215.337 32.1681 215.522 32.3404L215.151 32.9263C215.094 33.0186 215.018 33.0783 214.924 33.104C214.832 33.1284 214.729 33.1054 214.619 33.0362C214.513 32.9738 214.397 32.9033 214.268 32.8233C214.139 32.7405 213.987 32.6673 213.811 32.5967C213.633 32.5276 213.427 32.4679 213.191 32.4204C212.955 32.3702 212.675 32.3458 212.354 32.3458C211.874 32.3458 211.441 32.4245 211.054 32.5818C210.668 32.7378 210.338 32.963 210.066 33.2546C209.793 33.5489 209.584 33.9016 209.438 34.3139C209.291 34.7263 209.218 35.1902 209.218 35.7015C209.218 36.2386 209.295 36.7215 209.45 37.1447C209.604 37.5706 209.823 37.93 210.105 38.2257C210.388 38.5201 210.733 38.7452 211.139 38.8999C211.543 39.0545 211.994 39.1318 212.495 39.1318C212.692 39.1318 212.873 39.1209 213.042 39.0992C213.21 39.0775 213.371 39.045 213.527 39.0057C213.68 38.9636 213.831 38.9134 213.975 38.8524C214.118 38.7913 214.264 38.7249 214.405 38.6516V36.8151H213.111C213.028 36.8151 212.963 36.7893 212.913 36.7419C212.862 36.693 212.835 36.632 212.835 36.5587V35.8195H215.585V35.8182Z" fill="#FF7829" stroke="#FF7829" stroke-width="0.339096" stroke-miterlimit="10"/>
<path d="M223.753 39.0287L223.746 40.084H218.314V31.319H223.746V32.3743H219.62V35.1522H222.941V36.1722H219.62V39.0274L223.753 39.0287Z" fill="#FF7829" stroke="#FF7829" stroke-width="0.339096" stroke-miterlimit="10"/>
<path d="M233.512 31.319V40.084H232.853C232.752 40.084 232.667 40.065 232.599 40.0297C232.531 39.9931 232.464 39.9348 232.396 39.852L227.446 33.4486C227.454 33.5584 227.463 33.6656 227.468 33.7714C227.473 33.8772 227.478 33.9775 227.478 34.0711V40.084H226.335V31.319H227.007C227.121 31.319 227.205 31.3326 227.263 31.3584C227.319 31.3855 227.383 31.4438 227.452 31.5388L232.413 37.9477C232.403 37.8297 232.392 37.7144 232.386 37.6032C232.381 37.4919 232.377 37.3861 232.377 37.2885V31.3204L233.512 31.319Z" fill="#FF7829" stroke="#FF7829" stroke-width="0.339096" stroke-miterlimit="10"/>
<path d="M242.778 38.2054C242.851 38.2054 242.915 38.2339 242.967 38.2908L243.48 38.8524C243.121 39.2769 242.685 39.6038 242.17 39.8358C241.656 40.0677 241.036 40.183 240.313 40.183C239.677 40.183 239.102 40.0745 238.589 39.8548C238.074 39.635 237.634 39.3271 237.269 38.9324C236.906 38.5377 236.622 38.0657 236.424 37.5163C236.226 36.967 236.125 36.3621 236.125 35.7029C236.125 35.045 236.23 34.4387 236.439 33.8907C236.648 33.3414 236.942 32.8694 237.321 32.4747C237.698 32.08 238.151 31.7721 238.677 31.5523C239.205 31.3326 239.787 31.2227 240.427 31.2227C241.05 31.2227 241.602 31.3245 242.087 31.5279C242.571 31.7314 242.993 32.0027 243.351 32.3417L242.925 32.9453C242.897 32.9901 242.86 33.0267 242.818 33.0538C242.775 33.0823 242.719 33.0973 242.65 33.0973C242.573 33.0973 242.483 33.0593 242.379 32.982C242.276 32.9033 242.139 32.8178 241.969 32.7229C241.801 32.6279 241.593 32.5398 241.344 32.4638C241.094 32.3879 240.786 32.3472 240.416 32.3472C239.981 32.3472 239.582 32.4245 239.218 32.5764C238.856 32.7283 238.546 32.9481 238.283 33.2342C238.021 33.5218 237.817 33.8745 237.672 34.2909C237.53 34.7073 237.456 35.1779 237.456 35.7029C237.456 36.2373 237.532 36.7107 237.683 37.1257C237.832 37.5421 238.041 37.8921 238.306 38.1823C238.569 38.4712 238.881 38.691 239.239 38.8402C239.597 38.9894 239.983 39.0667 240.398 39.0667C240.651 39.0667 240.879 39.0504 241.079 39.0206C241.28 38.9907 241.466 38.9446 241.634 38.8822C241.802 38.8212 241.962 38.7425 242.113 38.6476C242.263 38.5526 242.413 38.4373 242.559 38.3031C242.592 38.2746 242.627 38.2502 242.664 38.2312C242.699 38.2135 242.737 38.2054 242.778 38.2054Z" fill="#FF7829" stroke="#FF7829" stroke-width="0.339096" stroke-miterlimit="10"/>
<path d="M249.18 36.6184V40.0853H247.887V36.6184L244.677 31.3204H245.819C245.933 31.3204 246.022 31.3475 246.093 31.4031C246.162 31.4587 246.219 31.5306 246.263 31.6202L248.168 34.8972C248.245 35.0477 248.314 35.1915 248.377 35.3244C248.44 35.4587 248.496 35.5903 248.546 35.7205C248.59 35.5903 248.641 35.4587 248.701 35.3244C248.761 35.1902 248.827 35.0477 248.904 34.8972L250.802 31.6202C250.843 31.5455 250.898 31.4791 250.97 31.4167C251.041 31.3529 251.132 31.3217 251.241 31.3217H252.389L249.18 36.6184Z" fill="#FF7829" stroke="#FF7829" stroke-width="0.339096" stroke-miterlimit="10"/>
<defs>
<linearGradient id="paint0_linear_1_449" x1="103.333" y1="24.7404" x2="60.1868" y2="14.262" gradientUnits="userSpaceOnUse">
<stop stop-color="#F4831F"/>
<stop offset="0.3925" stop-color="#FBB040"/>
<stop offset="1" stop-color="#ED4F23"/>
</linearGradient>
<linearGradient id="paint1_linear_1_449" x1="105.15" y1="17.2664" x2="62.0009" y2="6.78735" gradientUnits="userSpaceOnUse">
<stop stop-color="#F4831F"/>
<stop offset="0.3925" stop-color="#FBB040"/>
<stop offset="1" stop-color="#ED4F23"/>
</linearGradient>
<linearGradient id="paint2_linear_1_449" x1="104.284" y1="20.8435" x2="61.1337" y2="10.3643" gradientUnits="userSpaceOnUse">
<stop stop-color="#F4831F"/>
<stop offset="0.3925" stop-color="#FBB040"/>
<stop offset="1" stop-color="#ED4F23"/>
</linearGradient>
<radialGradient id="paint3_radial_1_449" cx="0" cy="0" r="1" gradientUnits="userSpaceOnUse" gradientTransform="translate(1.19685 4.46551) scale(49.3793 49.3793)">
<stop stop-color="#F4831F"/>
<stop offset="0.3925" stop-color="#FBB040"/>
<stop offset="1" stop-color="#ED4F23"/>
</radialGradient>
<linearGradient id="paint4_linear_1_449" x1="2.34131" y1="23.7204" x2="51.371" y2="23.7204" gradientUnits="userSpaceOnUse">
<stop stop-color="#E5AB1D"/>
<stop offset="0.3656" stop-color="#ED4F23"/>
<stop offset="0.6452" stop-color="#E4B21D"/>
<stop offset="1" stop-color="#ED4F23"/>
</linearGradient>
</defs>
</svg>
