<svg width="81" height="81" viewBox="0 0 81 81" fill="none" xmlns="http://www.w3.org/2000/svg">
<path d="M9.53174 67.7698C9.53174 50.0498 9.53174 32.3299 9.53174 14.6232C9.57174 14.4899 9.62507 14.3565 9.66507 14.2232C10.0384 12.5832 10.8784 11.2232 12.3051 10.3432C13.0917 9.86318 14.0251 9.60985 14.8917 9.26318C32.6117 9.26318 50.3317 9.26318 68.0384 9.26318C68.1317 9.30318 68.2117 9.35652 68.3184 9.36985C70.0251 9.70318 71.4117 10.5699 72.3184 12.0365C72.8117 12.8232 73.0517 13.7565 73.3984 14.6232C73.3984 32.3432 73.3984 50.0632 73.3984 67.7698C73.3584 67.9032 73.3051 68.0365 73.2651 68.1699C72.6917 70.5299 71.2651 72.0898 68.9584 72.8632C68.6517 72.9698 68.3317 73.0499 68.0251 73.1299C50.3051 73.1299 32.5851 73.1299 14.8784 73.1299C14.7451 73.0899 14.6117 73.0365 14.4784 72.9965C11.9717 72.3699 10.3717 70.8232 9.67841 68.3432C9.65174 68.1565 9.5984 67.9565 9.53174 67.7698ZM66.9451 45.8232C66.9451 43.9165 66.9584 42.1165 66.9184 40.3165C66.9184 40.1565 66.6517 39.9032 66.4651 39.8632C65.0117 39.5565 63.5451 39.1699 62.0784 39.0232C59.2651 38.7565 56.4651 38.9432 53.8117 40.0765C47.4917 42.7699 47.9717 49.9432 51.3317 52.7832C52.4251 53.7165 53.7184 54.4365 54.9851 55.1165C56.4651 55.9165 58.0384 56.5165 59.5184 57.3032C60.1184 57.6232 60.6651 58.1565 61.0651 58.7032C61.9317 59.8765 61.6117 61.3432 60.3584 62.0899C59.8117 62.4099 59.1851 62.6632 58.5717 62.7565C55.3317 63.2765 52.3984 62.4898 49.7451 60.5832C49.5584 60.4498 49.3584 60.3032 49.0917 60.1032C49.0917 61.9298 49.0917 63.6365 49.0917 65.3432C49.0917 66.3965 49.0784 66.4098 50.1051 66.7698C54.1051 68.1432 58.1851 68.3165 62.2517 67.2099C64.9851 66.4632 67.1451 64.8765 67.8651 61.9965C68.8651 57.9699 67.7317 54.8632 64.2251 52.7165C62.9451 51.9299 61.5051 51.3832 60.1584 50.6899C58.9451 50.0632 57.6651 49.4899 56.6117 48.6632C54.9984 47.3965 55.3184 45.4099 57.1851 44.5565C57.9184 44.2232 58.7717 44.0232 59.5717 43.9565C62.1717 43.7698 64.5984 44.3965 66.9451 45.8232ZM38.6117 67.5032C38.6117 59.8632 38.6117 52.2899 38.6117 44.6498C41.3184 44.6498 43.9451 44.6498 46.5584 44.6498C46.5584 42.9298 46.5584 41.2765 46.5584 39.6099C39.1184 39.6099 31.7051 39.6099 24.3051 39.6099C24.3051 41.3165 24.3051 42.9965 24.3051 44.7165C26.9584 44.7165 29.5717 44.7165 32.2517 44.7165C32.2517 52.3432 32.2517 59.9165 32.2517 67.5032C34.3851 67.5032 36.4384 67.5032 38.6117 67.5032Z" fill="#272C34"/>
</svg>
