<svg width="81" height="81" viewBox="0 0 81 81" fill="none" xmlns="http://www.w3.org/2000/svg">
<g clip-path="url(#clip0_1_352)">
<path d="M80.2717 7.19653C67.3651 30.4365 54.5251 53.5565 41.5651 76.8632C28.6317 53.5965 15.7784 30.4632 2.8584 7.19653C5.03173 7.19653 7.04507 7.19653 9.07173 7.19653C11.1917 7.19653 13.2984 7.2232 15.4184 7.1832C16.1384 7.16987 16.5384 7.3832 16.8851 8.03653C24.8984 22.8899 32.9517 37.7299 40.9917 52.5699C41.1517 52.8765 41.3384 53.1699 41.5651 53.5832C41.7917 53.1965 41.9651 52.9165 42.1117 52.6365C50.1517 37.7965 58.1917 22.9565 66.2184 8.1032C66.5784 7.43653 66.9517 7.16987 67.7384 7.1832C71.5784 7.23653 75.4184 7.20987 79.2584 7.20987C79.5384 7.19653 79.8317 7.19653 80.2717 7.19653Z" fill="#272C34"/>
<path d="M20.2717 7.19654C24.0851 7.19654 27.7117 7.1832 31.3384 7.2232C31.6451 7.2232 32.0717 7.56987 32.2317 7.87654C35.1784 13.2099 38.0851 18.5699 41.0184 23.9299C41.1651 24.2099 41.3384 24.4765 41.5651 24.8499C41.7917 24.4765 41.9517 24.1965 42.1117 23.9165C45.0184 18.5965 47.9384 13.2632 50.8184 7.92987C51.1117 7.3832 51.4317 7.16987 52.0717 7.1832C55.6051 7.20987 59.1384 7.19654 62.8451 7.19654C55.7517 20.2099 48.7117 33.1165 41.5651 46.2099C34.4317 33.1565 27.3917 20.2499 20.2717 7.19654Z" fill="#272C34"/>
</g>
<defs>
<clipPath id="clip0_1_352">
<rect width="80" height="80" fill="white" transform="translate(0.844971 0.609863)"/>
</clipPath>
</defs>
</svg>
