<svg width="250" height="252" viewBox="0 0 250 252" fill="none" xmlns="http://www.w3.org/2000/svg">
<g clip-path="url(#clip0_1_23)">
<path opacity="0.78" d="M148.639 52.1996C188.791 65.1448 210.793 108.173 197.865 148.27C184.92 188.423 141.892 210.424 101.794 197.497C61.6421 184.552 39.6404 141.523 52.5679 101.426C65.4953 61.329 108.486 39.2544 148.639 52.1996Z" fill="#F26722"/>
<path d="M211.453 156.482C209.749 155.932 207.923 156.868 207.374 158.572C206.825 160.275 207.76 162.101 209.464 162.65C211.167 163.2 212.993 162.264 213.543 160.56C214.092 158.857 213.156 157.031 211.453 156.482Z" fill="white"/>
<path d="M41.671 85.8131C39.9676 85.2639 38.1414 86.1996 37.5922 87.9031C37.043 89.6065 37.9787 91.4327 39.6822 91.9819C41.3857 92.5311 43.2118 91.5954 43.761 89.8919C44.3102 88.1884 43.3745 86.3623 41.671 85.8131Z" fill="white"/>
<path d="M190.024 184.474L198.254 187.614L194.004 179.86L195.543 178.106L206.674 182.242L205.027 184.143L196.648 180.712L201.155 188.61L199.707 190.272L191.237 186.933L195.872 194.811L194.226 196.713L188.485 186.228L190.024 184.474Z" fill="white"/>
<path d="M174.818 197.691L177.52 198.927L182.915 194.83L182.448 191.943L184.446 190.459L186.345 203.049L184.51 204.404L172.857 199.248L174.818 197.691ZM184.029 201.938L183.226 196.693L179.194 199.771L184.029 201.938Z" fill="white"/>
<path d="M166.339 202.68L170.444 210.692L174.086 208.826L175.094 210.792L165.916 215.495L164.909 213.528L168.55 211.662L164.445 203.65L166.339 202.68Z" fill="white"/>
<path d="M151.977 208.751C154.532 207.994 155.545 208.624 156.339 211.252L157.438 215.011C158.215 217.694 157.639 218.724 155.102 219.426L149.08 221.133C147.474 221.588 146.442 220.829 146.07 220.284L147.004 218.518C147.319 218.863 147.816 219.205 148.619 218.978L154.514 217.291C155.445 217.044 155.66 216.566 155.375 215.562L154.295 211.748C154.047 210.817 153.733 210.472 152.674 210.739L146.707 212.463C145.904 212.691 145.671 213.224 145.584 213.682L143.836 212.693C143.921 212.052 144.367 210.858 145.973 210.402L151.977 208.751Z" fill="white"/>
<path d="M128.446 212.9L128.785 217.508L135.442 217.04L135.103 212.431L137.28 212.282L138.122 223.437L135.946 223.587L135.59 219.033L128.933 219.502L129.289 224.055L127.112 224.205L126.27 213.049L128.446 212.9Z" fill="white"/>
<path d="M106.245 210.849C108.887 211.519 109.41 212.539 108.723 215.236L107.735 219.052C107.066 221.694 106.066 222.344 103.479 221.693L97.7545 220.212C95.1676 219.56 94.59 218.523 95.2771 215.826L96.2643 212.009C96.9337 209.367 97.9889 208.735 100.521 209.369L106.245 210.849ZM97.4234 216.335C97.1411 217.4 97.3827 217.782 98.3368 218.028L103.989 219.546C104.943 219.793 105.325 219.552 105.607 218.487L106.594 214.671C106.876 213.607 106.635 213.225 105.681 212.978L100.011 211.515C99.0571 211.268 98.6751 211.51 98.3928 212.574L97.4234 216.335Z" fill="white"/>
<path d="M88.2506 204.805C90.4574 205.881 90.8182 207.213 89.6691 209.457L86.2591 216.263L84.3277 215.275L87.7378 208.47C88.132 207.624 88.0538 207.113 87.2631 206.736L82.3894 204.314C81.5987 203.937 81.1617 204.161 80.7124 204.989L77.3023 211.794L75.371 210.806L78.781 204.001C79.9301 201.757 81.1328 201.233 83.3947 202.327L88.2506 204.805Z" fill="white"/>
<path d="M67.5667 191.448L68.2959 196.73L71.0447 198.953L73.3042 196.094L75.0561 197.45L68.0967 206.211L60.9946 200.517C59.1502 199.071 59.0825 197.772 60.6189 195.835L61.0346 195.301C62.7522 193.179 63.9248 193.314 66.1015 195.049L65.1874 189.586L67.5667 191.448ZM62.5325 196.878C61.8274 197.745 61.6125 198.223 62.3872 198.838L67.7551 203.122L69.9062 200.41L64.5382 196.126C63.911 195.62 63.4544 195.716 62.8398 196.491L62.5325 196.878Z" fill="white"/>
<path d="M48.3183 167.791L42.7674 174.636L51.462 172.94L52.69 174.977L45.2598 184.256L43.9394 182.128L49.8012 175.262L40.8881 177.07L39.7347 175.178L45.5219 168.167L36.6284 170.103L35.308 167.975L47.0174 165.791L48.3183 167.791Z" fill="white"/>
<path d="M42.2932 154.418C43.1056 156.99 42.5301 158.021 39.9026 158.815L36.163 160.042C33.5177 160.892 32.4516 160.426 31.6571 157.799L29.8813 152.179C29.0512 149.662 29.6444 148.576 32.2719 147.782L36.0116 146.555C38.6568 145.706 39.7051 146.226 40.5175 148.799L42.2932 154.418ZM32.8781 149.862C31.8566 150.202 31.6044 150.607 31.9066 151.556L33.6823 157.175C33.9845 158.123 34.4074 158.321 35.4289 157.981L39.1685 156.755C40.2451 156.433 40.4422 156.01 40.14 155.061L38.3643 149.442C38.0621 148.493 37.6392 148.296 36.6177 148.636L32.8781 149.862Z" fill="white"/>
<path d="M37.2189 129.798L33.9843 133.984L34.3118 137.495L37.9503 137.148L38.1549 139.342L27.0387 140.44L26.1436 131.335C25.9371 128.958 26.7702 128.071 29.2752 127.845L29.9699 127.765C32.6756 127.482 33.3989 128.445 33.664 131.206L36.9323 126.726L37.2189 129.798ZM29.8814 129.925C28.8207 130.009 28.2736 130.197 28.3927 131.148L29.0459 137.986L32.5014 137.641L31.8482 130.803C31.7859 130.053 31.3986 129.746 30.4481 129.865L29.8814 129.925Z" fill="white"/>
<path d="M38.2053 111.085L33.3752 114.939L36.0106 118.646L37.3662 118.779L37.0947 120.941L26.0101 119.678L26.2815 117.516L33.2621 118.307L27.1384 109.766L27.4914 106.597L32.1686 113.212L38.5761 107.86L38.2053 111.085Z" fill="white"/>
<path d="M60.1199 65.5547L51.8722 62.47L56.1942 70.187L54.6382 71.9959L43.5069 67.8599L45.1535 65.9586L53.5505 69.3347L49.0436 61.4365L50.4913 59.7751L58.9789 63.0587L54.3264 55.2351L55.973 53.3339L61.731 63.7636L60.1199 65.5547Z" fill="white"/>
<path d="M75.3063 52.2097L72.6039 50.9736L67.264 55.0892L67.7317 57.9761L65.7155 59.515L63.7609 46.9065L65.5586 45.4796L77.2302 50.5802L75.3063 52.2097ZM66.0227 48.0006L66.8426 53.19L70.8751 50.1122L66.0227 48.0006Z" fill="white"/>
<path d="M83.7854 47.2213L79.6623 39.2644L76.0205 41.1305L75.0128 39.1639L84.2079 34.4063L85.2156 36.3729L81.5738 38.239L85.6969 46.1959L83.7854 47.2213Z" fill="white"/>
<path d="M98.1093 41.0772C95.5546 41.8344 94.5241 41.259 93.7473 38.5764L92.6487 34.8172C91.8719 32.1346 92.3922 31.0863 94.9843 30.4019L101.025 28.6402C102.631 28.1852 103.663 28.9436 104.052 29.4339L103.118 31.2C102.803 30.8554 102.306 30.5126 101.485 30.7952L95.6455 32.5C94.7146 32.7471 94.4997 33.225 94.7841 34.2288L95.8827 37.988C96.1475 38.8638 96.4443 39.2635 97.576 38.9595L103.488 37.2174C104.291 36.9899 104.524 36.4569 104.611 35.9985L106.359 36.9878C106.329 37.6469 105.828 38.8231 104.277 39.296L98.1093 41.0772Z" fill="white"/>
<path d="M121.548 36.8379L121.209 32.2294L114.59 32.7705L114.928 37.3791L112.807 37.5464L111.892 26.4284L114.013 26.261L114.369 30.8145L120.989 30.2733L120.633 25.7199L122.754 25.5525L123.669 36.6706L121.548 36.8379Z" fill="white"/>
<path d="M143.784 38.7779C141.143 38.1086 140.62 37.0889 141.307 34.3918L142.294 30.5754C142.964 27.9335 143.909 27.2653 146.551 27.9347L152.293 29.3604C154.88 30.012 155.458 31.0495 154.77 33.7465L153.783 37.5629C153.114 40.2048 152.114 40.8552 149.527 40.2036L143.784 38.7779ZM152.624 33.2369C152.906 32.1727 152.665 31.7908 151.711 31.544L146.023 30.136C145.069 29.8892 144.687 30.1309 144.405 31.1951L143.418 35.0115C143.136 36.0758 143.377 36.4577 144.331 36.7045L150.019 38.1125C150.973 38.3593 151.355 38.1176 151.637 37.0533L152.624 33.2369Z" fill="white"/>
<path d="M161.797 44.7676C159.59 43.6913 159.229 42.3589 160.323 40.0971L163.678 33.2742L165.61 34.2617L162.255 41.0846C161.86 41.9303 161.939 42.442 162.729 42.8185L167.603 45.241C168.394 45.6175 168.831 45.3936 169.28 44.5656L172.635 37.7428L174.566 38.7303L171.212 45.5531C170.117 47.815 168.86 48.3215 166.598 47.2275L161.797 44.7676Z" fill="white"/>
<path d="M182.572 58.0322L181.842 52.7504L179.076 50.5815L176.816 53.4405L175.064 52.0852L182.024 43.3235L189.199 48.9809C191.043 50.4268 191.129 51.6705 189.574 53.6623L189.159 54.1972C187.496 56.3365 186.268 56.1839 184.147 54.4662L185.116 59.947L182.572 58.0322ZM187.551 52.5842C188.256 51.7171 188.471 51.2392 187.696 50.6246L182.31 46.3953L180.159 49.1068L185.545 53.3361C186.172 53.8423 186.629 53.7463 187.243 52.9716L187.551 52.5842Z" fill="white"/>
<path d="M201.911 81.5961L207.461 74.7516L198.767 76.4479L197.539 74.4103L204.932 65.0587L206.252 67.1869L200.445 74.0705L209.376 72.2072L210.53 74.0991L204.742 81.1107L213.581 79.1567L214.901 81.2849L203.174 83.5236L201.911 81.5961Z" fill="white"/>
<path d="M208.008 94.9324C207.196 92.3599 207.771 91.3294 210.362 90.462L214.101 89.2355C216.691 88.3681 217.813 88.8511 218.625 91.4236L220.456 97.0606C221.286 99.5779 220.693 100.664 218.102 101.531L214.363 102.757C211.773 103.625 210.669 103.087 209.839 100.569L208.008 94.9324ZM217.423 99.4879C218.445 99.1484 218.697 98.7433 218.395 97.7946L216.546 92.2127C216.244 91.2641 215.821 91.0669 214.8 91.4064L211.06 92.6329C210.039 92.9724 209.786 93.3775 210.144 94.344L211.992 99.9259C212.295 100.875 212.717 101.072 213.739 100.732L217.423 99.4879Z" fill="white"/>
<path d="M213.138 119.57L216.373 115.384L216.045 111.873L212.407 112.22L212.202 110.026L223.263 108.91L224.176 117.96C224.382 120.337 223.604 121.242 221.027 121.505L220.332 121.585C217.626 121.868 216.903 120.905 216.638 118.145L213.369 122.624L213.138 119.57ZM220.493 119.388C221.572 119.249 222.101 119.115 221.982 118.165L221.311 111.382L217.855 111.727L218.526 118.51C218.589 119.26 218.976 119.567 219.926 119.448L220.493 119.388Z" fill="white"/>
<path d="M212.279 138.264L217.127 134.354L214.474 130.702L213.118 130.569L213.335 128.389L224.437 129.597L224.221 131.777L217.24 130.986L223.364 139.527L223.029 142.642L218.296 136.008L211.889 141.361L212.279 138.264Z" fill="white"/>
</g>
<defs>
<clipPath id="clip0_1_23">
<rect width="196.817" height="200" fill="white" transform="translate(187.975 251.367) rotate(-162.131)"/>
</clipPath>
</defs>
</svg>
